<svg xmlns="http://www.w3.org/2000/svg" xmlns:xlink="http://www.w3.org/1999/xlink" viewBox="0 0 1800 700"><defs><style>.cls-1{mask:url(#mask);filter:url(#luminosity-noclip-6);}.cls-10,.cls-2,.cls-23,.cls-37,.cls-4,.cls-49,.cls-6,.cls-61,.cls-8{mix-blend-mode:multiply;}.cls-2{fill:url(#linear-gradient);}.cls-3,.cls-5{mask:url(#mask-2);}.cls-3{filter:url(#luminosity-noclip-7);}.cls-4{fill:url(#linear-gradient-2);}.cls-6{fill:url(#linear-gradient-3);}.cls-7{mask:url(#mask-4);filter:url(#luminosity-noclip-9);}.cls-8{fill:url(#linear-gradient-4);}.cls-9{mask:url(#mask-5);filter:url(#luminosity-noclip-10);}.cls-10{fill:url(#linear-gradient-5);}.cls-11{isolation:isolate;}.cls-12{fill:#081b34;}.cls-13,.cls-16{opacity:0.8;}.cls-14,.cls-15,.cls-16{fill:none;stroke:#fff;stroke-linecap:round;stroke-linejoin:round;stroke-width:10px;}.cls-15{stroke-dasharray:20.97 41.94;}.cls-16{stroke-dasharray:20 40;}.cls-17{fill:#f9ee53;}.cls-18{fill:#231f20;}.cls-19{fill:#f5fbfb;}.cls-20{fill:#aa6429;}.cls-21{fill:#faa953;}.cls-22{mask:url(#mask-6);}.cls-23,.cls-37,.cls-61{opacity:0.2;}.cls-23{fill:url(#linear-gradient-6);}.cls-24{fill:#fee9dd;}.cls-25{fill:#7a6457;}.cls-26{fill:#69564a;}.cls-27{fill:#eaf0ec;}.cls-28{fill:#a18775;}.cls-29{fill:#91aab4;}.cls-30{fill:#9db2b9;}.cls-31{fill:#9b9a9a;}.cls-32{fill:#959595;}.cls-33{fill:#fff;}.cls-34{fill:#494848;}.cls-35{fill:#575757;}.cls-36{mask:url(#mask-7);}.cls-37{fill:url(#linear-gradient-7);}.cls-38{fill:#e2e8e4;}.cls-39{fill:#496379;}.cls-40{fill:#dfad9e;}.cls-41{fill:#3f2f27;}.cls-42{fill:#303030;}.cls-43{fill:#f7e4d7;}.cls-44{fill:#be6b64;}.cls-45{fill:#8abb9e;}.cls-46{fill:#b0625c;}.cls-47{fill:#624a3f;}.cls-48{mask:url(#mask-9);}.cls-49{opacity:0.22;fill:url(#linear-gradient-8);}.cls-50{fill:#efded0;}.cls-51{fill:#585975;}.cls-52{fill:#463933;}.cls-53{fill:#ead0c6;}.cls-54{fill:#222421;}.cls-55{fill:#686380;}.cls-56{fill:#957868;}.cls-57{fill:#848384;}.cls-58{fill:#eeedee;}.cls-59{fill:#4e4f68;}.cls-60{mask:url(#mask-10);}.cls-61{fill:url(#linear-gradient-9);}.cls-62{fill:#f5e7d6;}.cls-63{fill:#427184;}.cls-64{fill:#676767;}.cls-65{fill:#b5b5b6;}.cls-66{fill:#828282;}.cls-67{filter:url(#luminosity-noclip-5);}.cls-68{filter:url(#luminosity-noclip-4);}.cls-69{filter:url(#luminosity-noclip-2);}.cls-70{filter:url(#luminosity-noclip);}</style><filter id="luminosity-noclip" x="965.9" y="-7842" width="69.87" height="32766" filterUnits="userSpaceOnUse" color-interpolation-filters="sRGB"><feFlood flood-color="#fff" result="bg"/><feBlend in="SourceGraphic" in2="bg"/></filter><mask id="mask" x="965.9" y="-7842" width="69.87" height="32766" maskUnits="userSpaceOnUse"><g class="cls-70"/></mask><linearGradient id="linear-gradient" x1="965.9" y1="506.64" x2="1035.77" y2="506.64" gradientUnits="userSpaceOnUse"><stop offset="0" stop-color="#fff"/><stop offset="1"/></linearGradient><filter id="luminosity-noclip-2" x="1446.44" y="-7842" width="106.11" height="32766" filterUnits="userSpaceOnUse" color-interpolation-filters="sRGB"><feFlood flood-color="#fff" result="bg"/><feBlend in="SourceGraphic" in2="bg"/></filter><mask id="mask-2" x="1446.44" y="-7842" width="106.11" height="32766" maskUnits="userSpaceOnUse"><g class="cls-69"/></mask><linearGradient id="linear-gradient-2" x1="1629.4" y1="465.25" x2="1748.17" y2="465.25" gradientTransform="matrix(0.89, 0.08, -0.09, 1, 44.6, -196.4)" gradientUnits="userSpaceOnUse"><stop offset="0" stop-color="#4d4d4d"/><stop offset="1"/></linearGradient><linearGradient id="linear-gradient-3" x1="1629.4" y1="465.25" x2="1748.17" y2="465.25" gradientTransform="matrix(0.89, 0.08, -0.09, 1, 44.6, -196.4)" xlink:href="#linear-gradient"/><filter id="luminosity-noclip-4" x="1067.57" y="-7842" width="72.08" height="32766" filterUnits="userSpaceOnUse" color-interpolation-filters="sRGB"><feFlood flood-color="#fff" result="bg"/><feBlend in="SourceGraphic" in2="bg"/></filter><mask id="mask-4" x="1067.57" y="-7842" width="72.08" height="32766" maskUnits="userSpaceOnUse"><g class="cls-68"/></mask><linearGradient id="linear-gradient-4" x1="1067.57" y1="359.12" x2="1139.65" y2="359.12" xlink:href="#linear-gradient"/><filter id="luminosity-noclip-5" x="1261.55" y="-7842" width="56.78" height="32766" filterUnits="userSpaceOnUse" color-interpolation-filters="sRGB"><feFlood flood-color="#fff" result="bg"/><feBlend in="SourceGraphic" in2="bg"/></filter><mask id="mask-5" x="1261.55" y="-7842" width="56.78" height="32766" maskUnits="userSpaceOnUse"><g class="cls-67"/></mask><linearGradient id="linear-gradient-5" x1="1261.55" y1="348.43" x2="1318.32" y2="348.43" xlink:href="#linear-gradient"/><filter id="luminosity-noclip-6" x="965.9" y="502.54" width="69.87" height="8.21" filterUnits="userSpaceOnUse" color-interpolation-filters="sRGB"><feFlood flood-color="#fff" result="bg"/><feBlend in="SourceGraphic" in2="bg"/></filter><mask id="mask-6" x="965.9" y="502.54" width="69.87" height="8.21" maskUnits="userSpaceOnUse"><g class="cls-1"><path class="cls-2" d="M968.64,504.54c-1.2.18-2.7.7-2.74,1.91a2,2,0,0,0,.32,1.05c1.37,2.34,4.56,2.66,7.27,2.7l24.68.41c8.34.14,16.69.28,25-.2a35.59,35.59,0,0,0,10.47-1.77,3.45,3.45,0,0,0,1.84-1.26,2.56,2.56,0,0,0-1-3.24,7.26,7.26,0,0,0-3.56-1c-15.69-1.47-31.48.14-47.2.33A114.26,114.26,0,0,0,968.64,504.54Z"/></g></mask><linearGradient id="linear-gradient-6" x1="965.9" y1="506.64" x2="1035.77" y2="506.64" gradientUnits="userSpaceOnUse"><stop offset="0" stop-color="#010101"/><stop offset="1" stop-color="#010101"/></linearGradient><filter id="luminosity-noclip-7" x="1446.44" y="395.27" width="106.11" height="8.21" filterUnits="userSpaceOnUse" color-interpolation-filters="sRGB"><feFlood flood-color="#fff" result="bg"/><feBlend in="SourceGraphic" in2="bg"/></filter><mask id="mask-7" x="1446.44" y="395.27" width="106.11" height="8.21" maskUnits="userSpaceOnUse"><g class="cls-3"><path class="cls-4" d="M1447,401.47a4.43,4.43,0,0,0,1.61.44c2,.19,3.91.34,5.87.47,4,.25,8,.39,12.08.48,8.06.18,16.13.16,24.2.45,1.31,0,2.63.2,4,.17,16.88-.49,26.65-.5,39.33-.89,16.09-.51,33.13-3.6-2.65-5.84-7.65-.48-15.72-.5-23.38-.94-6.79-.38-13.59-.53-20.39-.54-5.92,0-11.83.08-17.75.16-6.17.09-13.34-1.13-19,2.07-.5.28-1,.59-1.5.84a8.65,8.65,0,0,0-2.08,1.05C1446.07,400.43,1446.34,401.09,1447,401.47Z"/></g></mask><linearGradient id="linear-gradient-7" x1="1629.4" y1="465.25" x2="1748.17" y2="465.25" gradientTransform="matrix(0.89, 0.08, -0.09, 1, 44.6, -196.4)" xlink:href="#linear-gradient-6"/><filter id="luminosity-noclip-9" x="1067.57" y="356.07" width="72.08" height="6.1" filterUnits="userSpaceOnUse" color-interpolation-filters="sRGB"><feFlood flood-color="#fff" result="bg"/><feBlend in="SourceGraphic" in2="bg"/></filter><mask id="mask-9" x="1067.57" y="356.07" width="72.08" height="6.1" maskUnits="userSpaceOnUse"><g class="cls-7"><path class="cls-8" d="M1068.94,359.32c-.68.29-1.46.8-1.37,1.53s1.21,1.06,2,1.07c22.72.3,45.47.59,68.14-.88a2.14,2.14,0,0,0,1.69-.63,1.48,1.48,0,0,0-.57-2,4.36,4.36,0,0,0-2.21-.47l-29.15-.87c-8-.24-16.16-1.12-24.14-1A37.07,37.07,0,0,0,1068.94,359.32Z"/></g></mask><linearGradient id="linear-gradient-8" x1="1067.57" y1="359.12" x2="1139.65" y2="359.12" xlink:href="#linear-gradient-6"/><filter id="luminosity-noclip-10" x="1261.55" y="345.49" width="56.78" height="5.89" filterUnits="userSpaceOnUse" color-interpolation-filters="sRGB"><feFlood flood-color="#fff" result="bg"/><feBlend in="SourceGraphic" in2="bg"/></filter><mask id="mask-10" x="1261.55" y="345.49" width="56.78" height="5.89" maskUnits="userSpaceOnUse"><g class="cls-9"><path class="cls-10" d="M1313.92,348.61c1.76-.26,3.82-.79,4.4-2.46a61.35,61.35,0,0,0-11.18-.54l-22.39.29c-5.48.06-11.47-.79-16.89-.21-1.56.16-5.3,1.13-6,2.65-1.54,3.13,4.09,2.83,5.77,2.88q10.85.38,21.68-.17C1297.51,350.63,1305.75,349.82,1313.92,348.61Z"/></g></mask><linearGradient id="linear-gradient-9" x1="1261.55" y1="348.43" x2="1318.32" y2="348.43" xlink:href="#linear-gradient-6"/></defs><title>Artboard 1 copy</title><g class="cls-11"><g id="Layer_1" data-name="Layer 1"><rect class="cls-12" width="1800" height="700"/></g><g id="Layer_2" data-name="Layer 2"><g class="cls-13"><path class="cls-14" d="M1800,61.61a66.56,66.56,0,0,0-9.33,3.57"/><path class="cls-15" d="M1756,88.49c-34.06,30.83-75.47,94.83-75.47,223.86,0,119.59,58.54,183.6,93.67,211.24"/><path class="cls-14" d="M1791.31,535.67c5.44,3.38,8.69,4.94,8.69,4.94"/></g><path class="cls-16" d="M0,371.33c106.57,0,68.82-191.71,203.23-191.71"/><circle class="cls-17" cx="311.82" cy="162.14" r="16.18"/><path class="cls-17" d="M305.78,139.47c-.82.05-1.65.13-2.48.26l-28.21,4.48a23.47,23.47,0,0,0-19.5,26.86h0a23.47,23.47,0,0,0,26.86,19.5l28.22-4.48a23.78,23.78,0,0,0,2.43-.52Z"/><line class="cls-12" x1="278.47" y1="141.36" x2="286.2" y2="189.97"/><rect class="cls-18" x="278.97" y="141.05" width="6.72" height="49.22" transform="matrix(0.99, -0.16, 0.16, 0.99, -22.49, 46.34)"/><path class="cls-19" d="M309.11,162.57s-18.52-4.14-30.37-16.51c-11-11.47-5.81-29.45,3.56-34.39s26.76,1,30.37,16.51C316.6,145,309.11,162.57,309.11,162.57Z"/><path class="cls-19" d="M309.11,162.57s-16.33,9.68-23.76,25.11c-6.9,14.31,3.6,29.8,14,31.59s25.13-9.28,23.77-25.11C321.67,176.93,309.11,162.57,309.11,162.57Z"/><path class="cls-18" d="M322.13,154a3.39,3.39,0,0,1,1.45-3.32l5.75-3.86a3.36,3.36,0,1,1,3.75,5.58l-5.75,3.87a3.38,3.38,0,0,1-4.67-.92A3.47,3.47,0,0,1,322.13,154Z"/><path class="cls-18" d="M324.16,166.72A3.37,3.37,0,0,1,328.4,163l6.67,1.89a3.36,3.36,0,0,1-1.84,6.47l-6.67-1.89A3.37,3.37,0,0,1,324.16,166.72Z"/></g><g id="Layer_4" data-name="Layer 4"><path class="cls-20" d="M1411.33,567.49q-10.89.93-22.15.93c-32.5,0-62-5.73-90.56-11.27-43-8.36-80.21-15.58-125.83-5.29-35.83,8.08-69.56,11.44-100.25,10-30.88-1.45-58.11-7.64-80.94-18.37-60.79-28.58-71.61-80-61.47-118.62,9.65-36.73,37-65.87,81.19-86.63,37.38-17.54,86.32-28.34,145.51-32.09,60.55-3.84,100.8,11.9,130.19,23.4,32,12.5,47.51,17.78,81.5,11.93,38-6.56,75.49-4.47,108.28,6,27.32,8.76,50.21,23.11,66.2,41.51,19,21.89,27,48,22.49,73.51-5.29,29.81-26.63,56.27-61.72,76.52C1476,555.09,1445,564.62,1411.33,567.49Zm-216.86-89.91c60.83-5.2,111.07,4.56,150.08,12.14,56.72,11,64.82,10.15,81,.81,15.63-9,20.65-20.7,22.11-28.91,2.15-12.14-1.84-25.11-11-35.6a52.72,52.72,0,0,0-23.3-15.52,43.9,43.9,0,0,0-22-1.24c-39,6.71-74.27,7.05-108,1-27.79-5-49-13.25-67.66-20.56-25.19-9.85-38.14-14.53-57.36-13.31-35.06,2.22-61.76,7.54-79.36,15.79-22.62,10.62-29,26.3-31.89,37.16h0c-6.37,24.24,3.07,47.69,23,57,14.67,6.89,38.23,6.75,70-.42A401.82,401.82,0,0,1,1194.47,477.58Z"/><path class="cls-21" d="M1411.78,559.19q-10.89.93-22.15.93c-32.51,0-62-5.73-90.57-11.28-43-8.36-80.2-15.58-125.82-5.29-35.83,8.09-69.56,11.45-100.25,10-30.88-1.46-58.12-7.64-81-18.37-60.79-28.58-71.61-80-61.47-118.62,9.65-36.73,37-65.88,81.19-86.63,37.38-17.54,86.33-28.34,145.51-32.09,60.55-3.85,100.8,11.9,130.19,23.4,32,12.5,47.52,17.78,81.5,11.92,38-6.55,75.5-4.46,108.29,6,27.32,8.77,50.21,23.12,66.2,41.51,19,21.89,27,48,22.49,73.51-5.3,29.81-26.64,56.27-61.72,76.53C1476.46,546.79,1445.45,556.31,1411.78,559.19Zm-216.86-89.92c60.82-5.19,111.06,4.57,150.07,12.14,56.72,11,64.83,10.15,81,.82,15.63-9,20.64-20.71,22.1-28.92,2.16-12.13-1.84-25.11-11-35.59a52.77,52.77,0,0,0-23.29-15.53,44.16,44.16,0,0,0-22-1.24c-38.95,6.72-74.26,7.06-108,1-27.79-4.95-49-13.24-67.66-20.55-25.18-9.85-38.14-14.54-57.36-13.32-35,2.23-61.76,7.54-79.35,15.8-22.63,10.62-29,26.29-31.89,37.16h0c-6.37,24.23,3.07,47.69,22.95,57,14.67,6.9,38.23,6.76,70-.41A403,403,0,0,1,1194.92,469.27Z"/><path class="cls-17" d="M1162.22,368c17.45-.49,30.32,4.2,54,13.47,4.84,1.89,9.85,3.85,15.09,5.8,17.52-21.77,34.93-43.57,48.71-66.11l1.27-2.29c-28.8-11.15-67.6-24.59-124-21l-2.34.15a14.88,14.88,0,0,1,1.81,5.83Z"/><path class="cls-17" d="M1391.85,401a44.16,44.16,0,0,1,22,1.24c.78.25,1.56.53,2.34.83q11.23-3.21,22.18-6.86c29.32-10.32,57.8-21.94,87.45-32-13.66-10.56-30.1-19-48.56-25-25.61-8.21-54-11.28-83.4-9.11-15.16,25.68-35.42,50.4-51.19,76A353.39,353.39,0,0,0,1391.85,401Z"/><path class="cls-17" d="M1214.34,468.09l6,70.4c22.11.15,43.29,3.6,65.73,7.85,5.2-8.08,10.56-16.14,15.76-24.2q2.85-4.42,5.62-8.86c.73-1.18,1.46-2.36,2.18-3.54l1.43-2.36c1.15-1.93,1-1.58-.62,1,2.28-2.34,3.3-5.75,4.66-8.27q2.23-4.12,4.25-8.27a145.73,145.73,0,0,0,6-14.21C1294.22,471.94,1257.13,466.52,1214.34,468.09Z"/><path class="cls-17" d="M1050.44,412.66a51.14,51.14,0,0,1,18.3-22.52c-24.77-17.27-48.81-34.9-68.21-54.55-37.64,20.27-61.15,47.46-70,81q-.83,3.18-1.46,6.47Z"/><path class="cls-17" d="M1106.75,482.89c-15.2,1-27.31-.61-36.17-4.78a41.26,41.26,0,0,1-11.69-8.23,87.05,87.05,0,0,1-8.86,1.71l-.11,0-.49.09q-3.09.58-6.15,1.26c-4.5,1-8.93,2.09-13.31,3.28q-6.33,1.72-12.51,3.67-3.15,1-6.27,2l-1.36.46c-14.4,5.66-29.4,10.85-43.94,16.4q-7.74,3-15.6,5.72c10,11.62,23.65,22.17,41.75,30.68,22.83,10.73,50.07,16.91,81,18.37q11.12.53,22.77.2C1099.32,530.12,1103.26,506.54,1106.75,482.89Z"/><path class="cls-17" d="M1448.46,460l-2.51.71c-2.85,7-8.59,15-20,21.56a72.45,72.45,0,0,1-7.27,3.76A625.8,625.8,0,0,0,1451,552.52a214.11,214.11,0,0,0,53.21-21.76c35.08-20.26,56.42-46.72,61.72-76.53.29-1.65.52-3.3.7-5C1527.26,452.92,1487.87,456.56,1448.46,460Z"/><g class="cls-22"><path class="cls-23" d="M968.64,504.54c-1.2.18-2.7.7-2.74,1.91a2,2,0,0,0,.32,1.05c1.37,2.34,4.56,2.66,7.27,2.7l24.68.41c8.34.14,16.69.28,25-.2a35.59,35.59,0,0,0,10.47-1.77,3.45,3.45,0,0,0,1.84-1.26,2.56,2.56,0,0,0-1-3.24,7.26,7.26,0,0,0-3.56-1c-15.69-1.47-31.48.14-47.2.33A114.26,114.26,0,0,0,968.64,504.54Z"/></g><path class="cls-24" d="M1012.82,422.22c1.06,3,1.79,5.26,2.79,8.32.86,2.61,3.64,8.33,4.28,11s.25,3.17.13,5.82c-.63,14.08-5.95,27.65-9.79,41.21a1.9,1.9,0,0,1-.65,1.16,1.78,1.78,0,0,1-1.09.19,12.72,12.72,0,0,1-4.5-1.11c3-12,4.24-24.06,6-36.32a11.14,11.14,0,0,0,.13-3.5,11.46,11.46,0,0,0-1-2.75c-2.29-5-5.44-10.05-7.73-15.05a50.72,50.72,0,0,0-3.91-7.4c-1.5-2.19-1.48-4.43-1.69-7.08A7.32,7.32,0,0,1,1000,410c2.56-1.29,6.48-2,8.11.82A71.85,71.85,0,0,1,1012.82,422.22Z"/><path class="cls-24" d="M973.88,442.77c1.61,18.78,3.21,37.58,3.84,56.42l4,.31a1.6,1.6,0,0,0,2-1.94q.79-11.3,1.58-22.58c.37-5.33.74-10.66.76-16a376.91,376.91,0,0,1,3.2-46c.27-2.09-3.33-3.23-4.39-5.06a7,7,0,0,0-2.29-2.23c-3.58-2.31-11.93-4.31-11.68,2.15.28,7.45,1.27,14.95,1.91,22.38Q973.35,436.48,973.88,442.77Z"/><path class="cls-25" d="M1011.48,414a4.1,4.1,0,0,1,0,3,3.66,3.66,0,0,1-1.67,1.35,27.3,27.3,0,0,1-10.47,2.83c-2.18.13-4.81-.28-5.73-2.26-.54-1.17-.29-2.54-.49-3.82s-1.28-2.66-2.52-2.29a22.8,22.8,0,0,0,.4,5.59,2.91,2.91,0,0,1-2.85,3.47l-12.77.07c-2.33,0-4.89-.05-6.65-1.58-2.4-2.06-2.23-5.75-1.86-8.89.7-6,1.45-12.19,4.33-17.51a5.82,5.82,0,0,1,1.86-2.27,6.63,6.63,0,0,1,3.12-.76c5.73-.42,11.47-.64,17.21-.69,3.93,0,13-.48,14.9,3.78,1.1,2.41.54,7,.94,9.67A88,88,0,0,0,1011.48,414Z"/><path class="cls-26" d="M990.36,420.38a3.43,3.43,0,0,0-2.54-.36c-.56,0-1.13.1-1.7.17-1.46-.14-3.11.06-4.15.05-4.29,0-8.61-1.06-12.85-.86a2.06,2.06,0,0,0-1.53,1.41A1.26,1.26,0,0,0,968,422a2.24,2.24,0,0,0,1.26,1.15,3.76,3.76,0,0,0,1.41.21,5.8,5.8,0,0,0,2.53.52c4,.11,8.09.14,12.13.19,1.55,0,4.35.59,5.44-1A2,2,0,0,0,990.36,420.38Z"/><path class="cls-26" d="M1009.11,415.83a116.82,116.82,0,0,0-12,4.44.76.76,0,0,0-.15,0c-1,.16-1.65,0-2.14,1a1.26,1.26,0,0,0,.43,1.64c2.61,1.9,7.88-.92,10.46-1.8,2.28-.78,5.06-1.34,7.14-2.55.66-.38,1.08-.54,1.25-1.33C1014.74,414.29,1010.42,415.44,1009.11,415.83Z"/><path class="cls-26" d="M980.26,400.92c-2,3.79-6.23,5.39-10.34,5-.24,0-.29.37-.06.41,4.4.69,8.37-1.58,10.9-5.1C981,400.92,980.44,400.6,980.26,400.92Z"/><path class="cls-26" d="M1007.81,405.05a7.79,7.79,0,0,1-8.37-6.8c0-.22-.38-.23-.36,0a7.93,7.93,0,0,0,8.73,7.31C1008.14,405.53,1008.15,405,1007.81,405.05Z"/><path class="cls-24" d="M1014,385.65a3.91,3.91,0,0,0,2.48.93,10.07,10.07,0,0,0,5-.86c.51-.23,1-.58,1.05-1.06,0-.68-.93-1.05-1.72-1.2-1.64-.3-4.15-.79-5.81-.39C1013.91,383.34,1013.05,384.6,1014,385.65Z"/><path class="cls-27" d="M1002.14,331.44c-.13,1.74,1.9,2.85,3.66,3.1s3.75.14,5.1,1.27,1.57,3.16,1.65,4.95c.19,4.72.31,9.51-.78,14.11-.59,2.45-1.51,4.8-2.13,7.24a60.56,60.56,0,0,0-1.34,12.9,59.83,59.83,0,0,0,.2,9.37,31.28,31.28,0,0,1,.51,4.82,6.26,6.26,0,0,1-1.68,4.44c-1.31,1.27-3.25,1.65-5.07,1.92a103.4,103.4,0,0,1-17.84,1.09,2.88,2.88,0,0,1-1.57-.34,2.36,2.36,0,0,1-.79-1.09,13.86,13.86,0,0,1-.8-4.75c-.85-17.88-.79-35.83-2.85-53.62a4.2,4.2,0,0,1,.24-2.56c.84-1.51,3-1.46,4.79-1.37a25.76,25.76,0,0,0,5.41-.33c1-.17,1.84-1.18,2.68-1.1,1,.1,2.3,1.15,3.45,1.36A9.74,9.74,0,0,0,1002.14,331.44Z"/><path class="cls-28" d="M988.46,325.18a14.52,14.52,0,0,1,.59,4.1,20.66,20.66,0,0,1-.26,3.51c-.23,1.43-.86,3.09-2.28,3.37-1.26.25-2.4-.74-3.28-1.67s-2-2-3.23-1.85c-.32-.81.6-1.68,1.47-1.64a3.54,3.54,0,0,1,2.21,1.27c.44.44,1,1,1.61.79s.88-1.11.91-1.85a17.24,17.24,0,0,0-.23-4.71c-.15-.62-.36-1.22-.47-1.84a10,10,0,0,1,0-3c.17-1.46,1.29-.36,1.66.25A17.79,17.79,0,0,1,988.46,325.18Z"/><path class="cls-24" d="M1007.36,315.66c-.33-6.78-4.69-14.16-11.71-15.64-6.17-1.31-9.8,4.52-10.46,10.07a26.5,26.5,0,0,0,0,5.56,1,1,0,0,0-.81.05c-1,.48-.81,2-.49,2.83a6.12,6.12,0,0,0,2.13,2.6.52.52,0,0,0,.35.11,26.17,26.17,0,0,0,2.49,5.43c1.67,2.72,4.2,5.3,7.38,5.43,2.85.11,5.4-1.8,7.16-4A18.77,18.77,0,0,0,1007.36,315.66Z"/><path class="cls-28" d="M991.26,308.8c-1.56,1.48-3.58,2.67-4.37,4.67-.48,1.23-.43,2.64-1,3.82a1.12,1.12,0,0,1-1.18-1.2c-1,.29-1,1.74-.43,2.6s1.41,1.58,1.57,2.58-.35,1.84-.29,2.76a5.16,5.16,0,0,0,1,2.24,19.81,19.81,0,0,1,2.67,12.11H988a12.56,12.56,0,0,0-2.79-8.93,19.11,19.11,0,0,1-2.73-3.44,10.78,10.78,0,0,1-.79-3.79,22.43,22.43,0,0,1-.08-4.41c.26-2.26,1.2-4.43,1.22-6.7,0-1.32-.29-2.62-.25-3.93a15.72,15.72,0,0,1,1.51-5.53,8.13,8.13,0,0,1,1.4-2.49,5.41,5.41,0,0,1,3.93-1.49c2.31,0,5,1.06,5.07,3.6A10.27,10.27,0,0,1,991.26,308.8Z"/><path class="cls-28" d="M1014.61,325.73c-.18-2.65.08-5.31,0-8a55,55,0,0,0-.62-6.27,28.69,28.69,0,0,0-.75-3.8,30.28,30.28,0,0,0-2.89-6.22c-1.15-2.05-2.36-4.16-4.3-5.48-2.22-1.52-5.08-1.75-7.75-1.49a8.07,8.07,0,0,0-3.52,1c-2.71,1.74-1.16,4.24-.8,6.7.4,2.75,1.17,5.18,3.44,7s5.14,2.42,7.39,4.14,2,.34,1.65,6.32a13.12,13.12,0,0,1-1,4.26c-1.93,3.54,0,8-.56,11.92a4.73,4.73,0,0,0-.23,1.09s0,0,0,0h0a6.59,6.59,0,0,0,.51,2.72c.57,1.72,1.53,3.21,2,4.95a5.56,5.56,0,0,1-.23,3.58c.77-.93,2.21-1.24,2.73-2.34a4.88,4.88,0,0,0,.32-1.38c.33-2.11,1.7-4.05,2.2-6.13a3.3,3.3,0,0,0,0-1.4h0C1011.27,333.53,1014.85,329.33,1014.61,325.73Z"/><path class="cls-24" d="M966.26,369a6.19,6.19,0,0,0,4.27-2.37,36.48,36.48,0,0,0,1.86-4.93,2.31,2.31,0,0,1,.18-.42,6.47,6.47,0,0,1,.16-1.09c1.48-7.19,5.46-13.36,8.83-19.88.39-.76-.7-2.39-.78-3.25-.25-2.69-5.53-1.68-6.72-.26a8.07,8.07,0,0,0-1.07,1.93L962.44,363a4.4,4.4,0,0,0-.55,2.56c.26,1.34,1.64,2.12,2.88,2.71Z"/><path class="cls-29" d="M981.91,352.57c.67,1.48,1.3,3,1.82,4.52A61.52,61.52,0,0,1,986,368.46q1.92,14.43,3.85,28.87c.08.55.1,1.22-.35,1.55a1.56,1.56,0,0,1-.83.19l-12.62.52a57.4,57.4,0,0,1-8.6-.08,2.15,2.15,0,0,1-1.48-.59,2.08,2.08,0,0,1-.28-1.55c.38-3.34,2.23-6.27,3.76-9.25a52.48,52.48,0,0,0,2.81-6.55,19.49,19.49,0,0,0,1.19-5.14,37.89,37.89,0,0,0-.64-6.79c-.35-2.89-.32-5.81-.84-8.67s-1.7-5.73-4-7.52a4,4,0,0,1-1.16-1.12,2.91,2.91,0,0,1-.17-1.87,18,18,0,0,1,3-6.94c.46-.69,1.33-2.54,2.07-2.92s2,.61,2.68,1.15C977.94,344.42,980.13,348.57,981.91,352.57Z"/><path class="cls-30" d="M987,388.79c-.35,0-.7,0-1.06.08-.15-1.66-.34-3.32-.53-5h.06a.75.75,0,0,0,0-1.5h-.21c-.56-4.69-1.25-9.35-2.15-14-.4-2.06-.83-4.1-1.33-6.09.68,0,1.36,0,2,.1s.8-1.27,0-1.23l-2.31.07a46.57,46.57,0,0,0-2.28-6.62,9.28,9.28,0,0,0,2.28-1.63c.48-.49-.18-1.43-.76-1a21.06,21.06,0,0,1-2.08,1.4,30,30,0,0,0-3.87-6.06,6.46,6.46,0,0,0,.63-1,.67.67,0,0,0-1.15-.67,19.51,19.51,0,0,1-1.8,2.79,6.57,6.57,0,0,1-1.31,1.16c-.33-.33-.63-.68-1-1s-.52.11-.32.31.61.64.9,1c-.32.2-.64.39-1,.56s0,.77.34.58.74-.38,1.11-.6a26.37,26.37,0,0,1,3.17,4.57,2.44,2.44,0,0,1-.26.06c-.59.07-.62,1,0,1,.25,0,.49,0,.73-.07a28.45,28.45,0,0,1,2,5.49c-.79,0-1.58,0-2.37.08-.54,0-.54.86,0,.84q1.29,0,2.58-.06a44.41,44.41,0,0,1,1.06,8.2c.1,2.58.27,5.27.4,8-.73,0-1.46,0-2.19,0,0-.26,0-.51,0-.76,0-.72-1.08-.72-1.11,0l-.06.75h-1.11c-.3,0-.39.49-.07.53s.76.09,1.14.14c-.09,1.17-.2,2.33-.36,3.48-.41,0-.81,0-1.22,0s-.38.57,0,.62l1.1.12a45,45,0,0,1-1.25,5.64c-.8-.07-1.59-.12-2.39-.22-.29,0-.35.46-.07.51.76.13,1.52.22,2.29.32a41.13,41.13,0,0,1-2.2,5.62,18.7,18.7,0,0,1-3-.61c-.54-.17-.77.68-.24.84a21.17,21.17,0,0,0,2.78.63c-.1.2-.18.4-.29.59-.27.51.51,1,.77.45.15-.3.29-.6.43-.91,4.51.59,9.47.11,13.78-.21.33.41,1.16.29,1.11-.36-.14-1.83-.3-3.66-.46-5.49l1,0C987.76,390,987.76,388.72,987,388.79Zm-2,.15c-1.78.13-3.55.22-5.33.23.13-1.78.17-3.59.18-5.4,1.59.11,3.18.15,4.76.12C984.76,385.57,984.91,387.26,985,388.94Zm-5.14-6.39c0-1,0-2.06-.07-3.09,1.33.06,2.66.1,4,.11a.6.6,0,0,0,.34-.11c.12,1,.26,2,.36,3Zm-8.21-32.43a12.28,12.28,0,0,0,2.92-2.54,30.22,30.22,0,0,1,3.69,6,11.21,11.21,0,0,1-3.11,1.19A26.18,26.18,0,0,0,971.65,350.12Zm4,5.65a12.49,12.49,0,0,0,3.11-1,46.39,46.39,0,0,1,2.13,6.45l-3,.1A28,28,0,0,0,975.67,355.77Zm2.45,6.47c1,0,2,0,3,0,.61,2.51,1.09,5.08,1.55,7.66.5,2.76.9,5.56,1.26,8.36a.42.42,0,0,0-.2,0c-1.34.09-2.68.12-4,.14-.15-3.55-.43-7.07-.71-10.43A35.32,35.32,0,0,0,978.12,362.24Zm-1.82,17,2.28.18c0,1.06.09,2.12.11,3.18-.92,0-1.83,0-2.75,0C976.11,381.47,976.22,380.34,976.3,379.21Zm-.51,4.19c1,.11,1.94.2,2.92.28,0,1.84,0,3.68-.1,5.49-1.39,0-2.78-.06-4.18-.16A45,45,0,0,0,975.79,383.4ZM972,395.27a53.42,53.42,0,0,0,2.22-5.6c1.43.18,2.87.33,4.31.42a42.7,42.7,0,0,1-.66,5.23A39.57,39.57,0,0,1,972,395.27Zm13.19-.51c-2,.14-4.11.35-6.27.5.29-1.67.5-3.39.65-5.12,1.82.08,3.64.06,5.47,0C985.13,391.67,985.18,393.22,985.2,394.76Z"/><path class="cls-29" d="M1002.45,340.79a42.81,42.81,0,0,1-1.78,5.22,27,27,0,0,0-1,6.33c-1.06,15.74,2.32,31.59.44,47.25l8.65-.08a5,5,0,0,0,2.73-.54c1.61-1.06,1.45-3.44,1.09-5.33a59.13,59.13,0,0,1-1.1-7.24c-.33-5.25.88-10.45,1.87-15.62a185.26,185.26,0,0,0,3.11-26.68,12.13,12.13,0,0,0-.1-2.76,8.3,8.3,0,0,0-3.83-5.18,24.93,24.93,0,0,0-6.09-2.55c-.74-.24-2.08-1-2.85-.89-1,.12-.88.89-.93,1.88C1002.53,336.63,1002.45,338.77,1002.45,340.79Z"/><path class="cls-30" d="M1013.71,344.88c-1.07,0-2.1,0-3.13-.05q.54-2.43,1.24-4.79c.26.08.5.17.76.24a.58.58,0,0,0,.3-1.11l-.74-.22,0-.05c.16-.49-.61-.7-.77-.21v0c-1.79-.53-3.56-1.1-5.3-1.77,0-.15.07-.3.12-.45.11-.36-.44-.51-.56-.15,0,.13-.07.26-.11.39l-.3-.11c-.38-.16-.66.49-.28.67l.37.17a58.21,58.21,0,0,0-1.5,6.09l-.73-.25c-.4-.14-.57.49-.18.64l.8.28c-.3,1.61-.54,3.23-.74,4.86l-1.22-.11c-.35,0-.43.55-.08.61l1.21.21c-.25,2.13-.43,4.27-.58,6.41l-.18,0a.42.42,0,0,0-.22.8l.34.1c-.18,2.63-.31,5.25-.44,7.81-.1,2.06-.14,4.14-.15,6.21-.34,0-.68-.06-1-.11s-.4.52-.08.57l1.1.18c0,2.61.06,5.22.16,7.83a.55.55,0,0,0,0,.85c.11,2.84.26,5.68.41,8.51l-.75.06c-.5,0-.5.82,0,.79l.79,0,.21,4.1h-.24c-.46,0-.46.69,0,.72h.28c0,.38,0,.76.05,1.13,0,.64,1,.64,1,0,0-.36,0-.73-.05-1.1,1.5.06,3,.08,4.51.08,0,1.06.09,2.11.08,3.16a.48.48,0,0,0,1,0c0-1.05-.08-2.1-.15-3.15h1.39c.67,0,.64-1.1,0-1l-1.44.12c-.11-1.33-.24-2.67-.38-4h.31a.64.64,0,0,0,0-1.27l-.44,0c-.21-2-.43-4-.58-6,0-.41,0-.82-.06-1.23.15,0,.3,0,.45,0a.66.66,0,0,0,.18-1.29c-.23-.06-.47-.08-.7-.12-.09-2.41-.07-4.82,0-7.23.88.11,1.76.2,2.65.26s.82-1.24,0-1.29l-2.6-.12q.07-1.71.21-3.42l.18-2.66c1.39.29,2.77.59,4.17.85.83.16,1.17-1.13.35-1.26-1.48-.24-3-.45-4.44-.65q.21-2.94.46-5.9c.68.07,1.35.12,2,.15a.66.66,0,0,0,0-1.31c-.65,0-1.29,0-1.93,0q.3-3.24.76-6.44,1.59.18,3.18.27c.73,0,.69-1,0-1.11q-1.5-.18-3-.3c.2-1.29.43-2.56.69-3.83a23.57,23.57,0,0,0,3.35.17A.55.55,0,0,0,1013.71,344.88Zm-7.84-7.16a51.35,51.35,0,0,0,5.18,2.08c-.5,1.64-.94,3.29-1.3,5a25.36,25.36,0,0,1-5.27-1C1004.85,341.71,1005.32,339.7,1005.87,337.72Zm2.14,56.1c-1.5.08-3,.08-4.52,0l-.21-4.16c1.48,0,3,0,4.44.05C1007.84,391.1,1007.94,392.46,1008,393.82Zm-.91-12c.12,2.26.32,4.51.52,6.75-1.46.06-2.93.18-4.39.3-.15-2.75-.3-5.49-.42-8.24,1.4.23,2.85.52,4.27.62C1007.09,381.41,1007.09,381.6,1007.1,381.79Zm-.07-2.05c-1.4-.18-2.86-.2-4.26-.27-.1-2.54-.17-5.07-.18-7.61,1.48.24,3,.48,4.44.68Q1006.93,376.14,1007,379.74Zm.27-13.06c-.11,1.58-.18,3.17-.24,4.76-1.49-.06-3-.13-4.47-.26,0-1.64,0-3.28.07-4.91,0-.65.05-1.3.07-1.95,1.56.28,3.11.6,4.66.92Zm.16-2.46c-1.57-.22-3.14-.46-4.7-.72q.11-3.06.29-6.2a28.77,28.77,0,0,0,4.84,1C1007.73,360.3,1007.59,362.27,1007.46,364.22Zm.52-7.06a31.14,31.14,0,0,1-4.88-.76q.2-3.24.54-6.47c1.68.28,3.37.54,5.07.75Q1008.26,353.91,1008,357.16Zm.88-7.59-5.14-.41c.19-1.58.4-3.15.66-4.7a30.82,30.82,0,0,0,5.16,1.25C1009.28,347,1009.06,348.28,1008.86,349.57Z"/><path class="cls-31" d="M999.55,383.78c4.28.85,6.78.3,11.13.35,5.91.07,12.05-.26,18-.59a5.14,5.14,0,0,0,2.45-.57,2,2,0,0,0,1-2.25,2.77,2.77,0,0,0-1.6-1.4l-5.07-2.48a10.23,10.23,0,0,1-1.61-.91,10.89,10.89,0,0,0-1.3-1,4.8,4.8,0,0,0-2.12-.4,111.72,111.72,0,0,0-11.85.51c-5.29.41-10.59.82-15.87,1.32a17.54,17.54,0,0,0-4.38.8,1.21,1.21,0,0,0-.8.62c-.23.61.44,1.17,1,1.38.81.3.95.71,1.55,1.2a8.06,8.06,0,0,0,2.51.93C994.28,381.9,997.73,383.42,999.55,383.78Z"/><path class="cls-24" d="M990.55,377.41l7.57,2c1.74.46,3.8.85,5.19-.29.61-.5,1-1.5.38-2a3.94,3.94,0,0,0-.94-.47,8.77,8.77,0,0,1-1.38-1.15,6,6,0,0,0-2.09-.89,135.38,135.38,0,0,1-25.07-9.8c-2.11-1.07-4.3-2.24-6.67-2.21-1.59,0-4.63,1.15-4.79,3.1-.12,1.59,3.77,3.17,5,3.85a73.18,73.18,0,0,0,14.29,5.62C984.87,375.93,987.71,376.68,990.55,377.41Z"/><path class="cls-29" d="M963.35,356.38c-1,1-2.23,1.92-2.52,3.29-.13.6-.06,1.22-.13,1.83-.19,1.6-1.35,3.1-1,4.67.42,1.82,2.52,2.56,4.23,3.29a17.67,17.67,0,0,1,4.9,3.14,16.74,16.74,0,0,0,2.18,1.86,11.64,11.64,0,0,0,4.77,1.36q7.82,1.11,15.54,2.73a1,1,0,0,0,.66,0,1.07,1.07,0,0,0,.49-.74,66.41,66.41,0,0,0,1.63-6.5,1.43,1.43,0,0,0,0-.65c-.12-.45-.61-.68-1-.84q-8.48-3.18-16.7-7a2.49,2.49,0,0,1-1.92-3c.15-2.18-1.56-1.58-1.41-3.75a3,3,0,0,0-.11-1.39,2.69,2.69,0,0,0-1-1.08c-1.52-1.15-4-4-5.52-2.07a17.21,17.21,0,0,0-1.6,2.88A4.52,4.52,0,0,1,963.35,356.38Z"/><path class="cls-30" d="M989.66,375.38a18.33,18.33,0,0,0-4.18-1.44c.23-1,.5-2,.77-2.93l2.88.36c.14,0,.17-.22,0-.24l-2.79-.54c.09-.31.16-.63.26-.95.17-.52-.61-.7-.8-.22-.13.33-.26.66-.38,1-2-.39-4-.83-5.93-1.39.13-.49.26-1,.4-1.48.07-.25-.3-.34-.39-.1-.17.47-.33.95-.49,1.43-1.09-.33-2.17-.69-3.23-1.12.35-.22.71-.44,1.05-.68s0-1-.39-.68-1,.66-1.51,1l-1-.43A15.25,15.25,0,0,1,970.9,365a21.23,21.23,0,0,0,2.16-.75c.51-.21.3-1.05-.23-.84-.87.35-1.75.65-2.62.91a3.47,3.47,0,0,1-.89-3.42,23.24,23.24,0,0,0,2.64.52c.43.05.54-.7.11-.76-.84-.13-1.66-.27-2.49-.44a5.55,5.55,0,0,1,.35-.61,9.85,9.85,0,0,0,1.65-5.37c0-.59-.89-.59-.91,0-.09,2.39-1.18,3.86-2.19,5.73-.81-.19-1.61-.4-2.4-.66.53-1.08.8-2.31,1.36-3.37.22-.42-.4-.78-.63-.37a21.67,21.67,0,0,0-1.09,2.58,4.15,4.15,0,0,1-.47.89c-.66-.24-1.32-.5-2-.8-.26-.12-.5.27-.23.4.62.29,1.24.55,1.87.81-.6.71-1.32,1.23-2,2a3.49,3.49,0,0,0-.44,3.67l-.74-.05c-.34,0-.32.48,0,.52s.7.07,1.05.11c0,0,0,.07.07.1a.24.24,0,0,0,.43-.06,22.38,22.38,0,0,0,6.22-.45c.66.48,1.37.88,2,1.23a26.12,26.12,0,0,0,2.58,1.32c-1.16.7-2.33,1.36-3.55,2-1.86-.79-4.08-1.35-5-3a.39.39,0,0,0-.68.4,5.07,5.07,0,0,0,2.71,2.23l2,.86-.6.28c-.29.13-.08.66.23.53l1.09-.47a17.23,17.23,0,0,1,2.07,1.22,9.7,9.7,0,0,0,1.89,1.14,16.45,16.45,0,0,0,3.47,1c0,.28-.12.56-.17.84-.07.46.61.66.71.2.06-.31.13-.62.19-.93,1.87.27,3.77.37,5.65.64-.07.3-.16.6-.22.91-.17.77,1,1.1,1.18.32.09-.34.17-.68.25-1a14.71,14.71,0,0,1,3.91,1.29C989.73,376.6,990.27,375.69,989.66,375.38Zm-26.5-10.14a3.4,3.4,0,0,1,1.24-3.94,6.71,6.71,0,0,0,1.23-1.15,3.3,3.3,0,0,0,.18-.32c.78.3,1.56.56,2.36.79,0,.07-.07.12-.1.19a3.51,3.51,0,0,0-.48,1.57,3.3,3.3,0,0,0,1.2,2.34A22,22,0,0,1,963.16,365.24Zm8.72,5.32a5.39,5.39,0,0,0-.58-.32,39.19,39.19,0,0,0,3.68-1.95,32.52,32.52,0,0,0,3.83,1.29c-.35,1.09-.67,2.2-.94,3.31A13.63,13.63,0,0,1,971.88,370.56Zm7,2.47-.33,0c.23-1.09.48-2.18.74-3.27a56.43,56.43,0,0,0,5.93,1.15c-.35.94-.67,1.88-1,2.84C982.56,373.4,980.76,373.24,978.93,373Z"/><path class="cls-32" d="M1029.46,352.73c1.7.13,3.65.44,4.52,1.9a5.22,5.22,0,0,1,.51,2.8c0,7.63.76,14.24-1.42,21.56a4.58,4.58,0,0,1-1,1.95,4.68,4.68,0,0,1-2.88,1c-8.27.91-18.59,1.92-26.85,1a6.15,6.15,0,0,1-2.84-.81c-1.62-1.1-1.88-3.34-1.94-5.29a147.61,147.61,0,0,1,.29-15.46c.22-3.12,0-7.23,3.4-8.45,3.74-1.32,9.11-.68,13-.72Q1021.9,352.15,1029.46,352.73Z"/><path class="cls-33" d="M1020.86,369.59a21.45,21.45,0,0,0-1-3.52c-.22-.56-.48-1.72-1.07-2a.43.43,0,0,0-.44,0,5.08,5.08,0,0,0-1.47,2.18,6.4,6.4,0,0,0-1.24,3.45.7.7,0,0,0,.69.7c1.34,0,2.69-.07,4-.16A.54.54,0,0,0,1020.86,369.59Zm-1.16-.42c-.86-.05-1.72-.08-2.58-.11a9.43,9.43,0,0,1,1.69-3.09c.15.42.3.84.43,1.27A18.06,18.06,0,0,1,1019.7,369.17Z"/><path class="cls-34" d="M983,488.84a1.74,1.74,0,0,1,2.15,1.86A38,38,0,0,1,985,497a3.6,3.6,0,0,0,.06,1.6,2.87,2.87,0,0,0,1.31,1.38c2.48,1.51,3.22,1.14,6.09,1.58a4.63,4.63,0,0,1,1.93.63c1.22.85,1.37,2.56,1.41,4.05a2.64,2.64,0,0,1-.16,1.22c-.45.93-1.72,1-2.75.95-3.35-.21-4.41.06-7.75-.22a34,34,0,0,1-8.46-1.41,1.36,1.36,0,0,1-.67-.41,1.41,1.41,0,0,1-.15-.86q.35-6.3.68-12.6c.06-1.06-.29-3.63.82-4.29S981.65,488.75,983,488.84Z"/><path class="cls-35" d="M976,488.39a.68.68,0,0,1,.15-.88,1.13,1.13,0,0,1,.92-.06c.3.1.58.26.88.34,1.31.36,2.78-.71,4-.22.35.13.68.39,1.06.35a3.79,3.79,0,0,0,.65-.21,2,2,0,0,1,1.42.41c.38.23.79.53.77.93s-.69.73-1.24.69-1.05-.26-1.6-.3-1.36.22-2,.18a7.28,7.28,0,0,1-1.29-.29C978.47,489,976.58,489.53,976,488.39Z"/><path class="cls-34" d="M1009.73,487.77a1.12,1.12,0,0,1,.92,1.7,37.06,37.06,0,0,0-.82,6.21,3.89,3.89,0,0,0,.31,2.14c.6,1.05,1.94,1.36,3.12,1.64a32.13,32.13,0,0,1,3.22.94,4.34,4.34,0,0,1,1.68.9c1,1,.91,2.6.75,4,0,.38-.12.81-.46,1a1,1,0,0,1-.58.08,80.61,80.61,0,0,1-12.54-1.8,10.67,10.67,0,0,1-3.84-1.31,1.47,1.47,0,0,1-.59-.62,1.62,1.62,0,0,1,0-.79c.18-1.52.44-3,.76-4.52.62-2.85,1.5-5.64,1.89-8.54.2-1.53-.21-2.66,1.63-2.19Z"/><path class="cls-35" d="M1003.15,486a1.13,1.13,0,0,1,1-.6c.75,0,1.37.57,2.12.55a3.46,3.46,0,0,0,1.13-.31,1.53,1.53,0,0,1,1.15,0c.36.19.49.63.9.75a6.78,6.78,0,0,0,.78,0,.63.63,0,0,1,.58.73,1.11,1.11,0,0,1,1,.2.69.69,0,0,1,.2.81,1.41,1.41,0,0,1-1.45.56,4.48,4.48,0,0,1-1.55-.63,1.08,1.08,0,0,0-.67-.2c-.27,0-.45.26-.72.33-.48.13-.91-.27-1.33-.51C1005.41,487.21,1002.53,487.46,1003.15,486Z"/><g class="cls-36"><g class="cls-36"><path class="cls-37" d="M1447,401.47a4.43,4.43,0,0,0,1.61.44c2,.19,3.91.34,5.87.47,4,.25,8,.39,12.08.48,8.06.18,16.13.16,24.2.45,1.31,0,2.63.2,4,.17,16.88-.49,26.65-.5,39.33-.89,16.09-.51,33.13-3.6-2.65-5.84-7.65-.48-15.72-.5-23.38-.94-6.79-.38-13.59-.53-20.39-.54-5.92,0-11.83.08-17.75.16-6.17.09-13.34-1.13-19,2.07-.5.28-1,.59-1.5.84a8.65,8.65,0,0,0-2.08,1.05C1446.07,400.43,1446.34,401.09,1447,401.47Z"/></g></g><path class="cls-38" d="M1493.18,211.7a8.29,8.29,0,0,1,4.6,2.43,30.32,30.32,0,0,1,5.13,6.26c1.39,2.19,2.58,4.51,3.76,6.82q2.34,4.57,4.64,9.17a54.14,54.14,0,0,1,2.65,5.86,10.72,10.72,0,0,1,.59,6.8c-.69,2.21-2.94,4-5.18,3.54-1.94-.43-3.17-2.33-4.19-4.08l-13.65-23.41a27.82,27.82,0,0,1-2.25-4.46C1488,217.19,1487.84,211.2,1493.18,211.7Z"/><path class="cls-39" d="M1457.81,341c.8-15.79-.89-31.9-.74-47.79a33.74,33.74,0,0,1,2.51-16.3,2.54,2.54,0,0,1,.55-.9c.84-.76,2.27-.36,3.38.05a40.28,40.28,0,0,0,32.92-2.52c1.92,2.59,2.47,5.77,3,8.84a134.75,134.75,0,0,1,1.8,14.91v0h0c0,1.07.07,2.14,0,3.21-.13,6.22-1.49,12.34-2.54,18.47a78,78,0,0,0-1.36,12.07c0,3.32.48,6.34-.36,9.59-2,8-2.06,16.7-2.93,24.86-.93,8.74-1.85,17.48-2.61,26.24l-.09,1.05c-.5.11-8.09,1.66-8.09-.08l-1.83-51c-.25-7.15.33-31.31-1.71-38.13l-2.53.23c-4.63,22.49-8.15,62.09-12.78,84.58-.41,2-.9,4.12-2.37,5.39s-6.18.71-6.61-1.26C1456.78,375.35,1456.93,358.17,1457.81,341Z"/><path class="cls-40" d="M1467.86,184.71c0-6.49,5.67-11.76,12.66-11.76s12.65,5.27,12.65,11.76a10.83,10.83,0,0,1-.47,3.13c0,.26,0,.52,0,.79a33,33,0,0,1-.53,7,16.13,16.13,0,0,1-7.62,11.24,9.68,9.68,0,0,1-4.91,1.49,9.46,9.46,0,0,1-6.16-2.73c-5.42-5-5.88-12.45-5.5-19.5A11.34,11.34,0,0,1,1467.86,184.71Z"/><path class="cls-41" d="M1483,392.93a45.58,45.58,0,0,1,9.77.36,37.76,37.76,0,0,0,8.09,4,6.64,6.64,0,0,1,2.33,1.17,1.57,1.57,0,0,1,.29,2.18,3,3,0,0,1-2.18.6,106.92,106.92,0,0,1-18-1.36,2,2,0,0,1-1-.35,1.44,1.44,0,0,1-.38-.68A6.82,6.82,0,0,1,1483,392.93Z"/><path class="cls-41" d="M1455.18,391.11a47.11,47.11,0,0,1,9.29,2.05,26.34,26.34,0,0,0,5.61,4.6,5.51,5.51,0,0,1,1.82,1.39,1.42,1.42,0,0,1-.17,2,2.78,2.78,0,0,1-2,.19,94,94,0,0,1-15.61-4,1.69,1.69,0,0,1-.8-.47,1.28,1.28,0,0,1-.2-.66A6.35,6.35,0,0,1,1455.18,391.11Z"/><path class="cls-27" d="M1454.56,276.35l.12-28.27c0-8,2-16.37,3.33-24.22.72-4.31,1.56-5.81,3.72-9.66.31-.55.36-.92,3.23-1.76.62-.18,2.1-.94,2.87-.82,3.74.57,7.55-.71,11.29-.14,4,.6,10.6-1.21,13.69,1.24,4.17,3.31,4.46,11.18,5.13,16.32.89,7,3,14,3.39,21,.33,6.13.51,12.27.63,18.4.07,3.2,1.36,14.32-1.82,16.46-1.86,1.26-6.83,1.77-11.94,1.92l-.56,0h-.14c-2.09.05-4.17,0-6.06,0-2.78-.06-5.14-.18-6.42-.29a146.79,146.79,0,0,1-17.7-2.8,4.19,4.19,0,0,1-2.76-1.37C1454.16,281.74,1454.56,277.08,1454.56,276.35Z"/><path class="cls-38" d="M1480.63,213c-.19-.25-.4-.55-.28-.83a1,1,0,0,1,.59-.43c1.07-.44,2.15-.83,3.26-1.19a1.53,1.53,0,0,1,1.11-.05,1.24,1.24,0,0,1,.4.39l2.06,2.7a.83.83,0,0,1,.21.47.81.81,0,0,1-.33.52,28.92,28.92,0,0,0-2.07,2.23c-.47.56-1,1.88-1.93,1.3-.7-.44-1-1.8-1.31-2.47A18.58,18.58,0,0,0,1480.63,213Z"/><path class="cls-38" d="M1476.92,216.43a10,10,0,0,1-.43,1.71.48.48,0,0,1-.15.2c-.22.14-.5-.09-.64-.3a27.74,27.74,0,0,0-4.37-4.78,3.48,3.48,0,0,1-.86-.94,1,1,0,0,1,.11-1.14,1.75,1.75,0,0,1,.79-.37l1.88-.54a2.19,2.19,0,0,1,2.16.22c.76.44,2.88,1.35,2.95,2.24.05.5-.62,1.27-.82,1.74A10.86,10.86,0,0,0,1476.92,216.43Z"/><path class="cls-42" d="M1482.07,216.08a.34.34,0,0,0,0-.24.38.38,0,0,0-.17-.16,4.78,4.78,0,0,0-3.17-.67.94.94,0,0,0-.38.12.71.71,0,0,0-.25.34,2.48,2.48,0,0,0,0,1.76,6.72,6.72,0,0,0,.91,1.6.4.4,0,0,0,.17.17.51.51,0,0,0,.25,0C1481,219,1481.76,217.17,1482.07,216.08Z"/><path class="cls-33" d="M1457.05,265.75a.49.49,0,0,1-.12-.13A.18.18,0,0,1,1457.05,265.75Z"/><path class="cls-42" d="M1480.84,221.25a16.94,16.94,0,0,1,2.24,8.28,83.16,83.16,0,0,0,.54,8.65,20.63,20.63,0,0,0,2.07,6.11c1.71,3.26,4.31,6.07,5.48,9.56a2.24,2.24,0,0,1,.15,1.32,2.65,2.65,0,0,1-.66,1A30.45,30.45,0,0,0,1486,263l-7-3.51a2.15,2.15,0,0,1-1.14-1,2.19,2.19,0,0,1,.06-1.36c2-8.17,0-16.74.09-25.16a75,75,0,0,1,.56-7.78c.1-.88,0-3.17.49-3.86C1479.72,219.49,1480.44,220.64,1480.84,221.25Z"/><path class="cls-38" d="M1483.73,224.06a3,3,0,0,1,1.58-1.12,3.25,3.25,0,0,1,2.4.94q11.1,8.33,22.71,15.92a13,13,0,0,1,4.06,3.53,7.87,7.87,0,0,1-.38,8.45,7.13,7.13,0,0,1-4.12,3,7.76,7.76,0,0,1-6.34-1.75,26,26,0,0,1-4.55-5.08,165.7,165.7,0,0,0-11.34-13.46,64.75,64.75,0,0,1-4.52-5.13C1481.55,227.1,1481.92,226.11,1483.73,224.06Z"/><path class="cls-38" d="M1460.26,214.53c-2.42.87-4,3.09-5.52,5.2L1439,242.21c-1.69,2.42-3.42,5.6-1.88,8.11a5.93,5.93,0,0,0,3.1,2.24,13.08,13.08,0,0,0,8.18.29,28.51,28.51,0,0,0,6.38-3.16,154.93,154.93,0,0,1,15-7.82,9.88,9.88,0,0,0,3.93-2.6c1-1.27,1.13-3.3-.09-4.31-1.53-1.28-3.8-.19-5.54.77a68.44,68.44,0,0,1-13,5c-.44.13-1,.24-1.29-.11s0-1,.34-1.47q5.16-6.33,10.31-12.65a15.58,15.58,0,0,0,2.77-4.3C1468.55,218.21,1464.72,212.93,1460.26,214.53Z"/><path class="cls-40" d="M1474.46,234.42c-.26-.39-.55-.87-.36-1.31a1.14,1.14,0,0,1,.22-.32c.76-.91,1.54-1.81,2.34-2.68a5.27,5.27,0,0,1,1-.92,1.75,1.75,0,0,1,1.33-.25,1.38,1.38,0,0,0,.44.09c.29,0,.5-.27.73-.45a1.7,1.7,0,0,1,1.41-.23,3.21,3.21,0,0,1,1.26.73,3.7,3.7,0,0,1,1.27,2.29,3.8,3.8,0,0,1-1.45,3.12,13.35,13.35,0,0,1-3.1,1.76c-.92.43-2.37,1.22-3.42.82-.4-.15-.53-.5-.71-.86A14.82,14.82,0,0,0,1474.46,234.42Z"/><path class="cls-42" d="M1475.23,238.86a65.67,65.67,0,0,1-3,6.56,26.59,26.59,0,0,0-2.14,4.75,18.64,18.64,0,0,0-.6,4.46c-.09,2.18-.07,4.36,0,6.53,0,1.53,0,3,.07,4.58a4.64,4.64,0,0,0,.61,2.6,1.66,1.66,0,0,0,2.35.48c.69-.65.4-1.77.2-2.7-.5-2.39,0-4.86.13-7.3.08-1.88-.07-3.76,0-5.63a25.69,25.69,0,0,1,3.37-11.1c.71-1.27,1.51-2.5,2.16-3.8,2-4.13,2.48-8.86,2.64-13.47a5.1,5.1,0,0,0-.45-2.82c-.72-1.23-2.44-1.49-2.47.12,0,1.9.14,3.74,0,5.64A43,43,0,0,1,1475.23,238.86Z"/><path class="cls-40" d="M1481.35,225.24a2.17,2.17,0,0,1-1.13,0,2.9,2.9,0,0,1-1.38-1.15l-3.39-4.36a5.56,5.56,0,0,1-.83-1.29,2.72,2.72,0,0,1,3.72-3.45,4.22,4.22,0,0,1,1.49,1.36,3.41,3.41,0,0,0,.58.67.9.9,0,0,0,.83.18,2.53,2.53,0,0,1,.53-.24c.3-.05.55.2.74.44a16.55,16.55,0,0,1,2.53,4.24c.49,1.2-.43,1.26-1.09,1.94A5.45,5.45,0,0,1,1481.35,225.24Z"/><path class="cls-25" d="M1496.27,184.21c-.22-1-1-1.65-1.28-2.6a12.49,12.49,0,0,1,.06-2.86,5.67,5.67,0,0,0-.66-2.35,7.49,7.49,0,0,0-2.42-3,4.39,4.39,0,0,0-3.53-.69l-.08,0a4.21,4.21,0,0,0-.51-1.78c-.93-1.52-2.92-1.69-4.58-1.43a3.89,3.89,0,0,1-2.14,0,4.84,4.84,0,0,1-1-.72,6.57,6.57,0,0,0-7.67-.24,14.45,14.45,0,0,1-2.16,1.51c-1.26.56-2.76.31-4,1s-1.91,2.46-2.24,4a12.38,12.38,0,0,1-1.46,4.58c-.94,1.35-2.56,2.12-3.16,3.69-.74,1.93.4,4.09,1.72,5.6a6,6,0,0,1,1.61,2.51c.1.43.08.88.17,1.31.17.78.94,1.3,1.1,2,1,4.69,3.83,4,8.22,9.48a5.53,5.53,0,0,1-.85-2.26,12.09,12.09,0,0,1,0-4.07,3.34,3.34,0,0,0,0-1.93,22.81,22.81,0,0,1-1.26-2.7,1.23,1.23,0,0,1,1-1.54,1.26,1.26,0,0,1,1.22,1.35,10,10,0,0,1,.63-5,6.56,6.56,0,0,1,4.8-3.09,43.35,43.35,0,0,0,5.67-1,6.74,6.74,0,0,0,2.27-1.34,4.14,4.14,0,0,0,.92.9,17.24,17.24,0,0,1,2.36,1.61c1,1,2.08,1.88,2.25,3.39s1.12,2.84,1.28,4.35c.49-1.72.41-2.21,1.54-3.53.67-.77.54-1.72,1.22-2.48A3.39,3.39,0,0,0,1496.27,184.21Z"/><path class="cls-43" d="M1346.75,373.12a10.28,10.28,0,0,0,.65-2.44c1.54-9,1.49-17.44-.14-24.58-.64-2.79-2-5.62-4.78-4.64a4.2,4.2,0,0,0-1.46.9c-1.86,1.75-2.14,4.74-2.08,6.93a211,211,0,0,0,1.37,21.74,10.86,10.86,0,0,0-1.77,1.66c-6.45,7.05-13.41,13.19-19.48,20.85a15.28,15.28,0,0,0-2.55,4.15c-.53,1.49-.38,3.09.61,3.23.81.11,1.86-.72,2.79-1.51l12.56-10.61c3.92-3.32,8-6.86,11.08-11.55A14.67,14.67,0,0,0,1346.75,373.12Z"/><path class="cls-28" d="M1319.9,383.17a3.27,3.27,0,0,0-4.6.68,26.74,26.74,0,0,0-3.52,3.62,26.2,26.2,0,0,0-3.15,6.14q-1.2,3-2.34,6c-.52,1.38-1,3-.27,4.26a4.57,4.57,0,0,0,1.72,1.51,61.42,61.42,0,0,0,7.4,3.57l14.67,6.3a13,13,0,0,0,3,1,6.5,6.5,0,0,0,3.38-.35,2.28,2.28,0,0,0,.83-.5,2.55,2.55,0,0,0,.46-.78,122.76,122.76,0,0,0,6.12-16.74,3,3,0,0,0-.07-2.59,3,3,0,0,0-1.07-.81C1335,390.51,1327.46,386.8,1319.9,383.17Z"/><path class="cls-44" d="M1324.74,362.73a3.3,3.3,0,0,1-.67,2.06,2.29,2.29,0,0,1-1.18.52,18.52,18.52,0,0,1-5.2.32,4.09,4.09,0,0,1-3.48-1.7,6.61,6.61,0,0,1-.61-3.31l-.12-8.58a3.06,3.06,0,0,1,.32-1.74,2,2,0,0,1,1.87-.61l8.14.37c1.41.07,1.13,1.12,1.16,2.56s.06,3.15,0,4.72C1325,359.14,1324.91,360.94,1324.74,362.73Z"/><path class="cls-43" d="M1341,387a22.62,22.62,0,0,1,.2,13.6,3.36,3.36,0,0,0-.21,1.29,2.58,2.58,0,0,0,1.58,1.8c3.62,1.95,7.83,2.15,11.89,2.16a162.26,162.26,0,0,0,19.58-1.14c.75-.91.24-2.3-.1-3.45-1-3.46-.26-7.2.11-10.82a2.29,2.29,0,0,0-.11-1.22,2.06,2.06,0,0,0-.8-.75,28.89,28.89,0,0,0-15.27-4.44,41.41,41.41,0,0,0-6.48.59A77,77,0,0,0,1341,387Z"/><path class="cls-43" d="M1356.8,331.87a8.13,8.13,0,0,0,3.3.12c6.18-1.06,8.23-8.67,8.45-13.36s0-9.38-2.08-13.59a9.41,9.41,0,0,0-8.57-5.34,10.41,10.41,0,0,0-2.42.24c-9.51,1.93-9.36,14.7-8.17,21.58C1348,325.54,1352,330.72,1356.8,331.87Z"/><path class="cls-42" d="M1353.73,514.59a36.25,36.25,0,0,0-8.77.37,32.5,32.5,0,0,1-7.25,4.07,5.78,5.78,0,0,0-2.09,1.19,1.75,1.75,0,0,0-.26,2.2,2.53,2.53,0,0,0,2,.61,86.23,86.23,0,0,0,16.12-1.37,1.64,1.64,0,0,0,.89-.36,1.43,1.43,0,0,0,.33-.69A7.59,7.59,0,0,0,1353.73,514.59Z"/><path class="cls-42" d="M1378.68,512.75a32.18,32.18,0,0,0-7.67,1.86,29.39,29.39,0,0,1-5.69,4.86,5,5,0,0,0-1.63,1.41,1.55,1.55,0,0,0,.15,2,2.23,2.23,0,0,0,1.83.2,76.35,76.35,0,0,0,14-4,1.49,1.49,0,0,0,.72-.47,1.43,1.43,0,0,0,.18-.67A6.87,6.87,0,0,0,1378.68,512.75Z"/><path class="cls-42" d="M1376.32,462.11c-.72-15.95.8-32.22.66-48.28a37.83,37.83,0,0,0-2.25-16.46,2.51,2.51,0,0,0-.49-.91c-.75-.77-2-.36-3,.05A32.48,32.48,0,0,1,1341.7,394c-1.72,2.62-2.21,5.83-2.64,8.94-.68,5-1.44,10-1.62,15.05v0h0c0,1.08-.06,2.17,0,3.25.12,6.28,1.33,12.47,2.28,18.66a87.53,87.53,0,0,1,1.21,12.19c0,3.35-.43,6.41.32,9.69,1.85,8.07,1.85,16.86,2.63,25.11.84,8.83,1.66,17.67,2.35,26.51,0,.35,0,.71.08,1.06.44.12,7.25,1.68,7.25-.08q.81-25.75,1.63-51.5c.28-8.78.58-17.72,3.73-25.83l13.29,72.77c.36,2,.81,4.16,2.12,5.45s3.79.93,4.17-1.07C1377.25,496.83,1377.11,479.48,1376.32,462.11Z"/><path class="cls-45" d="M1347.25,331.66a20.36,20.36,0,0,0,3.69,1.6,19.52,19.52,0,0,0,15.74-1.9,11.11,11.11,0,0,1,7.2,5.94,22.63,22.63,0,0,1,1.71,8.33c1.08,14.06,2,28.08,2.27,42.08.26,16,6,30,10.55,43a3.86,3.86,0,0,1,.32,1.82c-.27,1.68-2.41,2.17-4.11,2.27a489.25,489.25,0,0,1-52.65.2c.9-15.27,3.07-35.87,5.42-51,2.08-13.35-.74-22.48,1.35-36,.71-4.56,1.59-9.18,4.11-13.34a5.59,5.59,0,0,1,2.13-2.22C1346,332,1346.26,331.12,1347.25,331.66Z"/><path class="cls-43" d="M1321.57,355.66a15.53,15.53,0,0,1,4.71,1.22c9.11,3.54,17,8.39,25.66,12.49a12.51,12.51,0,0,1,1.62.89,7.21,7.21,0,0,0-.08,1.16,15.1,15.1,0,0,0,.09,2c0,.18-.07.34-.09.53-.09,1-.12,2-.12,3a1.64,1.64,0,0,0,0,.22,17.15,17.15,0,0,1-4.33-1.74c-5.38-1.55-10-4.42-14.29-7.19l-13.84-8.89c-1-.65-2.13-1.41-2.26-2.21C1318.5,356.2,1320,355.6,1321.57,355.66Z"/><path class="cls-46" d="M1320.78,360.75a.77.77,0,0,0,.68-.37c0-1,.17-2.71.18-3,0-.56.38-4.21-.65-4.08s-1.52-1.95-.28-2.12c.1,0,.19,0,.28,0v0h.11a2.57,2.57,0,0,1,1.55.35c1.77.81,1.66,3,1.54,5.33a20.45,20.45,0,0,1-.33,3.21,3.67,3.67,0,0,1-.76,2.74,1.92,1.92,0,0,1-1.07.54,1.42,1.42,0,0,1-1.79-.61C1319.45,362.21,1319.61,360.69,1320.78,360.75Z"/><path class="cls-42" d="M1320.33,394.28c.07-.22.28-.23.48-.24s.65.09.85-.21c.08-.12,0-.24.15-.36s.6-.17.92-.14a12.22,12.22,0,0,1-.82-1.17.13.13,0,0,1,.08-.19c.58-.16,1.09.25,1.66.21a4,4,0,0,0-.68-.93,6.3,6.3,0,0,1-1-.76.12.12,0,0,1,.15-.19,4.45,4.45,0,0,1,1.15.91c.22.11.85.41.81-.19a2.28,2.28,0,0,0-.45-.64,6,6,0,0,1-1.55-.8.09.09,0,0,1,0-.15c.39-.44,1.25.18,1.8.84a.13.13,0,0,1,0,.06,1.83,1.83,0,0,1,.46.91c0,.49-.38.5-.83.31a4.94,4.94,0,0,1,.4.67.13.13,0,0,1-.08.19c-.57.13-1.08-.26-1.64-.22a12.88,12.88,0,0,0,.86,1.19.14.14,0,0,1-.09.23c-.18,0-.37-.05-.54,0s-.41.29-.57.48-.08.18-.17.24-.49,0-.69,0-.36,0-.29.36a2.46,2.46,0,0,0,.41.65.16.16,0,0,1-.05.21l-.18.14c-.13.1-.3-.12-.18-.23S1320.23,394.59,1320.33,394.28Zm2.05-4.72c0,.1.49.33.92.5C1323,389.76,1322.44,389.36,1322.38,389.56Z"/><path class="cls-42" d="M1315.33,405.08a5.24,5.24,0,0,1,1.94-1,.24.24,0,0,1,0-.09.6.6,0,0,1,.34-.64c-.34-.4-.85-1-.71-1.42s.84-.38,1.26-.35c-.17-.6-.75-1.38-.19-1.92s1.41-.09,2,.15a6.86,6.86,0,0,0-.77-1.56.12.12,0,0,1,.11-.19c.29,0,.61.3.89.25s.27,0,.13-.25-.07-.26-.1-.38l-.27-.88s0,0,0-.07a.85.85,0,0,1,.47-.06s0,.06,0,.06c-.61,0,.12,1.52.19,1.78a.1.1,0,0,1-.08.13c-.38.11-.66-.12-1-.25a7,7,0,0,1,.77,1.63.15.15,0,0,1-.19.18c-.23-.08-.47-.17-.71-.24l-.49-.13c-.35-.19-.58-.09-.68.3-.34.48-.18.54,0,1a2.23,2.23,0,0,1,.16.56c0,.09,0,.21-.15.2-.34,0-1.14-.12-1,.42a3.5,3.5,0,0,0,.69,1,.16.16,0,0,1-.11.28,1.27,1.27,0,0,0-.09.43.69.69,0,0,1,.64.7.16.16,0,0,1-.2.16,2.08,2.08,0,0,1-.77-.46l0,0-.24.07a2.56,2.56,0,0,0-.58.22,3.91,3.91,0,0,0-1,.66C1315.41,405.49,1315.15,405.23,1315.33,405.08Z"/><path class="cls-42" d="M1322.39,400.85a2.62,2.62,0,0,0,.22-.48.53.53,0,0,1,0-.18c0-.32,0-.18.1-.5a12.36,12.36,0,0,1,.75-1.61c.13-.21.31-.38.44-.58a.87.87,0,0,0,.17-.92.11.11,0,0,1,.22-.06c.06.24.24.51.13.77s-.59.64-.8,1a6.54,6.54,0,0,0-.69,2,4.69,4.69,0,0,0-.16,1.37.13.13,0,0,1-.22.13A1,1,0,0,1,1322.39,400.85Z"/><path class="cls-42" d="M1322,402.58a.09.09,0,0,1,.12,0s0-.06,0-.09l0-.09c.07-.09.22,0,.15.09l0,.09a.09.09,0,0,1-.12,0,.07.07,0,0,1,0,.09l-.09.12c-.06.08-.22,0-.15-.09Z"/><path class="cls-43" d="M1364.86,351.41q-3.83,10.2-7.92,20.29a37.82,37.82,0,0,1-1.64,3.68c-.53,1-1.52,2.07-2.57,1.68a2.54,2.54,0,0,1-1-.78,8.46,8.46,0,0,1-1.29-1.8c-.72-1.52-.43-3.31-.1-5a116,116,0,0,1,8.43-27.14,5.37,5.37,0,0,1,1.59-2.23,4.9,4.9,0,0,1,2.64-.66c2.49-.08,4.62.91,4.23,3.6A40.43,40.43,0,0,1,1364.86,351.41Z"/><path class="cls-47" d="M1380.74,353.3c-.91,6.6-5.6,20.48-11.87,24a12.86,12.86,0,0,1-8.58,1.1c-1.51-10.53.87-23.05,2.28-33.56.63-4.67,1.61-9.16,2.62-13.7l.12-.52c1.07-4.78.21-9.86,1.66-14.56.53-1.74,1.4-3.64.62-5.29a4,4,0,0,0-3.73,2.2c-.16-2.55-.33-5.11-.49-7.67-1.29-.16-2.41.82-3.61,1.3a5.48,5.48,0,0,1-2.71.33,12.14,12.14,0,0,1-2.42.76,24.94,24.94,0,0,1-4.4.33l-8.16.14c-2.33-9,10.63-11.94,17.12-12.6,3.8-.39,7.87.35,10.78,2.82,2.41,2,3.78,5,4.94,7.93,2.67,6.73,1.34,15.22,2.88,22.44C1379.5,336.84,1381.88,345,1380.74,353.3Z"/><g class="cls-48"><path class="cls-49" d="M1068.94,359.32c-.68.29-1.46.8-1.37,1.53s1.21,1.06,2,1.07c22.72.3,45.47.59,68.14-.88a2.14,2.14,0,0,0,1.69-.63,1.48,1.48,0,0,0-.57-2,4.36,4.36,0,0,0-2.21-.47l-29.15-.87c-8-.24-16.16-1.12-24.14-1A37.07,37.07,0,0,0,1068.94,359.32Z"/></g><path class="cls-50" d="M1045.72,220.89a6.54,6.54,0,0,0-.71.5,3.31,3.31,0,0,1-2.4.28c-.57-.09-1.24-.18-1.59.34a2.06,2.06,0,0,0-.19,1.17,14.46,14.46,0,0,0,.19,1.74,2.34,2.34,0,0,0,.21.71,1.67,1.67,0,0,0,1,.78,6.59,6.59,0,0,0,2.86.19,27.83,27.83,0,0,0,4.35-.64,1.22,1.22,0,0,0,.9-.57,2,2,0,0,0,.09-1c-.11-1.2,0-2.69-1.07-3.19A5.84,5.84,0,0,0,1045.72,220.89Z"/><path class="cls-51" d="M1079.14,169.27a10.42,10.42,0,0,0-3.68,5.67c-2,6.38-1.18,13.34-2.34,19.95-2.22,12.67-12.49,23.4-24.69,25.81a14.87,14.87,0,0,0,.92,5.72c4.84-2.35,11-1,15.82-3.38,2.47-1.19,9-2.92,11.31-4.5,5.87-4.11,9.91-10.58,12.44-17.45s5.82-13.59,7-20.85C1096.74,174.72,1084.66,165.52,1079.14,169.27Z"/><path class="cls-52" d="M1089.47,131.75c-2,.48-4.92,1.86-4.8,4.46,0,.89.43,1.73.46,2.62.06,2.11-1.93,3.58-3.67,4.66a3,3,0,0,0-1.12,1,1.07,1.07,0,0,0,.23,1.37c.39.24.92.07,1.29.32s.42,1.05.17,1.56a6.55,6.55,0,0,1-2.2,2.21,5.71,5.71,0,0,0-2.13,2.26,2.14,2.14,0,0,0,.81,2.75,2.18,2.18,0,0,1,.71.32c.37.36.18,1-.13,1.42a3.06,3.06,0,0,0-.81,1.29,1.42,1.42,0,0,0,1.34,1.46,4,4,0,0,0,2.06-.61c.48.48,0,1.42.42,2a1.44,1.44,0,0,0,1.08.46l2.67.33a3.55,3.55,0,0,1,1.25.32c.69.39,1,1.19,1.54,1.81s1.43,1.08,2,.56c.77-.67.09-1.92-.41-2.83-1.24-2.27-1-5.08-.66-7.68.6-5.07,1.25-10.31,3.74-14.72.75-1.33,1.69-2.88,1.08-4.28C1093.62,132.93,1091.4,131.29,1089.47,131.75Z"/><path class="cls-52" d="M1116.3,150.75c.58-.69.15-1.8-.52-2.38s-1.55-.89-2.19-1.51c-1.42-1.4-1.16-3.76-.92-5.78a12.58,12.58,0,0,0-.11-4.7,5,5,0,0,0-2.81-3.5,10.14,10.14,0,0,0-2.91-.35c-1.45-.09-5.58-2.16-5.3.85.22,2.3,3.58,4,4.54,6.08,1.13,2.4.51,5.23.26,7.89-.27,3,0,6.13-.67,9.1a30.07,30.07,0,0,1-2.9,7.07l-1,2a3.34,3.34,0,0,0,2.56-.61,5.56,5.56,0,0,0,.56-.72,7.22,7.22,0,0,1,1.11-1.1,11.86,11.86,0,0,1,4.32-2.76c.62-.17,1.4-.37,1.53-1a4.34,4.34,0,0,0-.06-.88c0-1.15,1.33-1.76,2.44-1.81a1.62,1.62,0,0,0,1-.25c.61-.49.22-1.51-.26-2.14s-1.07-1.44-.7-2.15S1115.78,151.38,1116.3,150.75Z"/><path class="cls-53" d="M1088.37,137.31c-2.39,3.17-2.93,7.25-2.9,11.12a45.08,45.08,0,0,0,1,9.11c.64,3,1.64,6,3.77,8.23s5.65,3.56,8.67,2.48c3.45-1.22,5.08-4.88,6.19-8.19,1.61-4.8,3-9.85,2.13-14.8-.8-4.68-3.83-8-7.7-10.81C1095.91,131.83,1090.81,134.06,1088.37,137.31Z"/><path class="cls-52" d="M1109.06,136.78c-1.23-1.25-3.09-1.58-4.52-2.57-1.22-.84-2.08-2.12-3.26-3a10.93,10.93,0,0,0-10.87-.22,5.62,5.62,0,0,0-2.54,3.7c-1.21.3-2.08,1.19-2.15,3a3,3,0,0,0,.63,1.88,9.09,9.09,0,0,0-1.26,1.22l.22,3.6c-.06,1-.11,2-.17,3,.37.45,1.12.12,1.4-.39s.28-1.14.52-1.68.9-1,1.35-.6a5.57,5.57,0,0,0,1,2.65,1.74,1.74,0,0,0,2.46.3,3.62,3.62,0,0,0,.59-2.21c.09-.78.54-1.69,1.3-1.64a2,2,0,0,1,.87.39,3.48,3.48,0,0,0,2.78.64,1.86,1.86,0,0,0,1.31-2.31c.81-.12,1.32.83,2,1.33a3.92,3.92,0,0,0,2.83.46,5.68,5.68,0,0,0,1.83-.37c1,3.3.61,7.1.27,10.41.16-.72.31-1.44.47-2.16.31-.06.55.3.63.62.49,2.15-2,4.35-1.12,6.34.17-3,2.48-5.4,3.69-8.15a20.61,20.61,0,0,0,1.34-8.15C1110.68,140.7,1110.54,138.3,1109.06,136.78Z"/><path class="cls-52" d="M1095.39,167.19c.06-.15.09-.34.23-.42a.5.5,0,0,1,.24-.06c.53,0,1.06,0,1.58,0a.53.53,0,0,0,.31.7,1.36,1.36,0,0,0,.82,0l1.09-.25a.7.7,0,0,1-.15.92,1.8,1.8,0,0,1-.93.36c-1.31.25-3.13.72-4.41.14C1092.42,167.75,1095.07,168,1095.39,167.19Z"/><path class="cls-54" d="M1115,351.11l-.58-1.57.38-.1V334.53c0-6.52-.3-12.78-.85-19.23-1.64-19.09,3.84-39.93,2.33-59.37a87.41,87.41,0,0,0-1.8-13.5c-1.38-5.74-4.78-5-9.72-6-7.69-1.57-23.45-1.93-31,.29,0,37.1,7.07,78.46,10.18,115.3h.68a23.23,23.23,0,0,1-6.18,3.93,4.86,4.86,0,0,0-1.56.9,2.37,2.37,0,0,0,.28,3.4c1,.69,2.25.46,3.4.2l9.73-2.22a3,3,0,0,0,1.64-.76,3.23,3.23,0,0,0,.55-2.15l0-3.31h.3c2.42-20,1.72-39,2.31-59,1.08,9.33,3.14,14.69,5.31,26.32,1,5.38,2.18,10.65,3,16.08.44,2.77.9,5.53,1.42,8.27.44,2.36,1.26,4.82,1.2,7.28.16,0,.32,0,.48.05a24.08,24.08,0,0,1-4.36,6.15,5,5,0,0,0-1.12,1.44,2.33,2.33,0,0,0,1.48,3c1.14.27,2.26-.45,3.22-1.13l8.23-5.84a3,3,0,0,0,1.25-1.34A3.24,3.24,0,0,0,1115,351.11Z"/><path class="cls-55" d="M1088.75,168a5.55,5.55,0,0,0-3-1.27,3.3,3.3,0,0,0-2.24,1.28,10.71,10.71,0,0,0-1.85,4.38,179.65,179.65,0,0,0-5.16,32.88c-.16,2.59-4.19,10.73-3.66,13.28.87,4.19-1.71,15.56-1.34,19.83.2,2.23,0,4.91,1.66,6.29a5.78,5.78,0,0,0,2.9.95c3.63.51,18.45.08,22.08.59,2.61.36,13.72,1.14,16.07-.09,2.93-1.52,4.32-5,5.3-8.24,3.7-12.24-5.5-37.72-4.27-50.48.57-5.78,1.65-18.94-6.55-19.68-3-.27-6,1.39-8.83,2A14.78,14.78,0,0,1,1088.75,168Z"/><path class="cls-50" d="M1043,221.61a7.18,7.18,0,0,1,1.91,0,2.49,2.49,0,0,1,1.63,1,3.13,3.13,0,0,1,.48,1.5,2.37,2.37,0,0,1-.76,2.29,2.51,2.51,0,0,1-.74.26,12.31,12.31,0,0,1-2,.26,2.37,2.37,0,0,1-1.24-.18,2.46,2.46,0,0,1-1-1.81,5.67,5.67,0,0,1,0-2.59C1041.48,221.66,1042.42,221.66,1043,221.61Z"/><path class="cls-56" d="M1078.34,232.47c-2.42-20.51-6.54-39.36-9.2-58.46-.77-1.21-2.49-1.2-3.92-1-12,1.22-24.2,2.46-35.75,6.37a6.72,6.72,0,0,0-3.66,2.29,6.92,6.92,0,0,0-.71,4.25c1,17.79,5.24,35.09,9.52,52.26a19.8,19.8,0,0,0,1.89,5.35,3.06,3.06,0,0,0,1.48,1.43,3.67,3.67,0,0,0,1.55.06c10.75-1.16,21.49-2.52,32.16-4.43,2.37-.42,5.06-1.1,6.21-3.28A8,8,0,0,0,1078.34,232.47Z"/><path class="cls-57" d="M1032.39,177.71c.09-.9.69-1.08,1.38-1.26a14.88,14.88,0,0,1,3-.75c.71,0,1,.63,1,1.32a2.3,2.3,0,0,1-.07.74,6.69,6.69,0,0,0,.2.77.63.63,0,0,1-.27.71c-1,.46-2,.88-3,1.26-.69.26-1.3.53-1.71-.16A5.25,5.25,0,0,1,1032.39,177.71Z"/><path class="cls-57" d="M1054.74,173.42c.31-1,1.6-1.1,2.35-1.37s1.54-.63,2.18-.31a.24.24,0,0,1,.42,0,3.83,3.83,0,0,1,.36,2.81c-.37.78-1.6,1-2.26,1.25a2.54,2.54,0,0,1-2.43-.25A2.09,2.09,0,0,1,1054.74,173.42Z"/><path class="cls-58" d="M1034.28,178.38c.11.44.26,1.16.55,1.37s.83-.1,1.16-.35c0,0,.13,0,.13-.13a.38.38,0,0,0,0-.43c-.2-1.66.06-3.57-.55-5-.32-.76-1-1.39-1.38-.42a5.75,5.75,0,0,0-.16,2.24A16.3,16.3,0,0,0,1034.28,178.38Zm0-2.81c0-.26,0-.52,0-.78-.13-.69.08-1.45.55-1.32.29-.33.45.19.56.58a4.32,4.32,0,0,1,.24.82,11.25,11.25,0,0,1,.16,1.64,21,21,0,0,0,.17,2.4c-.31.28-.75.64-1.07.27a5.88,5.88,0,0,1-.48-2C1034.29,176.62,1034.26,176.1,1034.24,175.57Z"/><path class="cls-58" d="M1056.86,173.87c.1.45.26,1.16.55,1.37s.83-.09,1.16-.35c0,.05.12,0,.13-.12a.38.38,0,0,0,0-.43c-.2-1.67.06-3.58-.55-5-.32-.75-1-1.39-1.39-.42a6,6,0,0,0-.15,2.24A15.32,15.32,0,0,0,1056.86,173.87Zm0-2.8c0-.26,0-.53,0-.79-.13-.68.08-1.44.55-1.31.29-.33.45.18.56.58a5.21,5.21,0,0,1,.24.82,11,11,0,0,1,.16,1.64,21.18,21.18,0,0,0,.17,2.4c-.31.28-.75.64-1.07.26a5.77,5.77,0,0,1-.48-2C1056.87,172.12,1056.84,171.59,1056.82,171.07Z"/><path class="cls-27" d="M1091.3,176.92a71.09,71.09,0,0,1-.9,10.07c-.42,3.55-.63,7.13-.83,10.7s-.39,6.84-.58,10.26c-.67,11.91-1.34,23.82-1.62,35.75a1.56,1.56,0,0,0,1.77,1.91l6.8.81a1.75,1.75,0,0,0,.85,0c.75-.28.79-1.32.69-2.12a324.52,324.52,0,0,1-1.81-58,25,25,0,0,1,1.59-8.64c1.35-3.07,3.93-5.75,4.09-9.1,0,.69-4.3,1-4.85,1-1.9,0-3.71-1.16-5.44-1.19-2.32,0-1.4,1.07-.77,2.83A18.38,18.38,0,0,1,1091.3,176.92Z"/><path class="cls-51" d="M1114.94,170.16c4.6,4.35,5.33,11.42,6.53,17.76,1.34,7,2.61,8,4,15,.42,2.09.74,4.38-.21,6.27-1.38,2.72-4.74,3.48-7.68,3.94-4.37.68-7.3,1.8-11.67,2.48-7.61,1.19-3.16.55-15.29,2.51-.64.1-5.59,1.14-7.16,1.42-.84.16-4.08,1.49-4.46.69a20.58,20.58,0,0,1-1.75-5.75c-.18-1.24,6.22-2.33,7.35-2.76,1.34-.51,8-1.5,8.91-1.74,9.11-2.33,7.69-.92,16.8-3.26a9.06,9.06,0,0,0,2.26-.79c2.4-1.36-1.29-7.56-1.85-10.33s-.28-6.38-1.68-8.81a59.4,59.4,0,0,1-3.27-6.65c-.91-2.18-1.7-4.55-1.3-6.89C1105.41,167.94,1111.46,166.88,1114.94,170.16Z"/><path class="cls-50" d="M1073,217.92a4.92,4.92,0,0,0,.42,2.48,2.65,2.65,0,0,0,2.41,1.34,4.21,4.21,0,0,0,1.22-.31c1.11-.4,2.32-.88,2.78-1.8a3.15,3.15,0,0,0,0-2.24c-.42-1.7-1.29-3.49-3.73-3.14S1073,216.18,1073,217.92Z"/><path class="cls-51" d="M1085.21,170c-.27.12-.57.28-.65.56-.1.43.34.76.71,1a10.4,10.4,0,0,1,2.14,1.77c.08.09.16.19.13.3s-.19.2-.33.24a3.24,3.24,0,0,0-1.79,1.29,48.23,48.23,0,0,0,5.37,5.23,25.5,25.5,0,0,0-.56-8.75c-.2-.84-.5-3.08-1.37-3.31C1088.22,168.19,1085.87,169.74,1085.21,170Z"/><path class="cls-51" d="M1104.17,171.2c.29.36-.16.85-.55,1.09l-1.27.8c-.24.15-.51.37-.46.64s.48.4.7.64a.85.85,0,0,1,.09.91,2.45,2.45,0,0,1-.63.73,32.88,32.88,0,0,1-5.68,4,56.14,56.14,0,0,0,3.8-7.65C1101.1,170,1102.17,168.67,1104.17,171.2Z"/><path class="cls-51" d="M1108.49,189.53q.23,5.7.12,11.4a.77.77,0,0,1-.16.54.73.73,0,0,1-.44.15c-3.24.39-6.62.76-9.7-.34,0-1.9,0-3.81.09-5.72,0-1.21-.4-4.73.3-5.69C1099.18,189.2,1108.49,189.47,1108.49,189.53Z"/><path class="cls-51" d="M1088.35,190c-.31,3.6-.71,7.18-1.19,10.76a44.66,44.66,0,0,1-7.3-.69,2,2,0,0,1-1.2-.52c-.45-.53-.24-1.32,0-2a21.2,21.2,0,0,0,.91-4.8c.09-1-.18-2.49.7-3.25S1088.35,190,1088.35,190Z"/><path class="cls-59" d="M1108.07,192c.31,0,.7.07.87-.19a.79.79,0,0,0,.1-.37,8.13,8.13,0,0,0-.17-2.36c-3.45.06-7.25-.31-10.63.24-.64,2.44,1.59,1.9,3.28,2A53.5,53.5,0,0,1,1108.07,192Z"/><path class="cls-59" d="M1086.58,192.41a2.11,2.11,0,0,0,.94-.08,1.5,1.5,0,0,0,.82-1.2,4.55,4.55,0,0,0-.16-1.51,52.62,52.62,0,0,0-8.4-.63C1079,192.47,1084.25,192.41,1086.58,192.41Z"/><g class="cls-60"><path class="cls-61" d="M1313.92,348.61c1.76-.26,3.82-.79,4.4-2.46a61.35,61.35,0,0,0-11.18-.54l-22.39.29c-5.48.06-11.47-.79-16.89-.21-1.56.16-5.3,1.13-6,2.65-1.54,3.13,4.09,2.83,5.77,2.88q10.85.38,21.68-.17C1297.51,350.63,1305.75,349.82,1313.92,348.61Z"/></g><path class="cls-62" d="M1274.22,168.05a13,13,0,0,1-2.25-6.85c-.33-5.14-.06-10.45,2-15.15,2.42-5.4,8.59-10.78,15-9.4,7.51,1.62,7,11.29,6.5,17.73-.41,5.11-2.24,10.3-6,13.76C1283.85,173.31,1277.52,172.64,1274.22,168.05Z"/><path class="cls-63" d="M1268,341.74c-2.8-31.88-5-68.62-7.79-100.49a189.58,189.58,0,0,1,24.42-.8c2.53.06,7.12-1,7.62,2,.34,2-1.41,6.4-1.73,8.55-2.17,14.74-7.3,29-8.14,43.91-.25,4.33-.12,8.67-.21,13a197.8,197.8,0,0,1-1.88,22c-.37,2.86-2.27,8.18-1.55,10.92.61,2.32,4.18,3.58,6.49,4.51a5.87,5.87,0,0,1,2.15,1.22,1.79,1.79,0,0,1,.27,2.27,2.57,2.57,0,0,1-2,.63,88.21,88.21,0,0,1-16.62-1.42,1.74,1.74,0,0,1-.92-.36,1.57,1.57,0,0,1-.34-.71,7.82,7.82,0,0,1,.46-5.26Z"/><path class="cls-64" d="M1329.6,171.71a1.62,1.62,0,0,1,1.26,2.64q-8.49,12.56-15.73,24.69c-.62,1-1.39,2.2-2.61,2.44a4.24,4.24,0,0,1-2.3-.38l-9.57-3.56a1.59,1.59,0,0,1-.8-2.32A197.73,197.73,0,0,1,1316,171.06a2.21,2.21,0,0,1,2.14-.83A77.05,77.05,0,0,0,1329.6,171.71Z"/><path class="cls-33" d="M1325.53,174.63a1.15,1.15,0,0,1,.87,1.86q-5.88,8.77-11,17.45a3.27,3.27,0,0,1-1.86,1.76,2.91,2.91,0,0,1-1.64-.25L1305,193a1.13,1.13,0,0,1-.58-1.66A141,141,0,0,1,1316,174.08a1.55,1.55,0,0,1,1.51-.57A53.81,53.81,0,0,0,1325.53,174.63Z"/><path class="cls-64" d="M1312.06,168.14a30.26,30.26,0,0,1-4.38-1.22.55.55,0,0,1,.37-1c1.42.51,2.8,1.13,4.26,1.56C1312.78,167.58,1312.52,168.25,1312.06,168.14Z"/><path class="cls-64" d="M1313.36,166.09a9,9,0,0,1-1-3.53c0-.71,1-.95,1.1-.21a20.54,20.54,0,0,0,.71,3.47C1314.3,166.29,1313.56,166.5,1313.36,166.09Z"/><path class="cls-64" d="M1316,166.05a21.72,21.72,0,0,1,.7-4.94c.14-.68,1.21-.64,1.11.09a23,23,0,0,1-1.06,5A.39.39,0,0,1,1316,166.05Z"/><path class="cls-65" d="M1314,178.51a2,2,0,0,1,1.51-1.69,5.6,5.6,0,0,1,2.41,0l5.27.8a3.7,3.7,0,0,1-1.23,1.9,1.65,1.65,0,0,1-.56.43,1.77,1.77,0,0,1-1.23-.15A22.44,22.44,0,0,0,1314,178.51Z"/><path class="cls-65" d="M1318.94,183.47a22.3,22.3,0,0,0-5.52-2.13.25.25,0,0,0-.13.48,26.34,26.34,0,0,1,5.33,2.19A.31.31,0,0,0,1318.94,183.47Z"/><path class="cls-65" d="M1317.84,184.68a19.83,19.83,0,0,0-6.29-1.12c-.29,0-.29.43,0,.45a22.57,22.57,0,0,1,6.13,1.24C1318,185.38,1318.19,184.81,1317.84,184.68Z"/><path class="cls-65" d="M1316,187.12c-1.85-.71-3.76-1.27-5.65-1.86-.27-.08-.37.33-.11.42,1.85.68,3.72,1.39,5.61,1.95C1316.22,187.73,1316.34,187.24,1316,187.12Z"/><path class="cls-65" d="M1314.82,189.35c-1.84-.55-3.73-1-5.59-1.43a.22.22,0,0,0-.12.43c1.84.53,3.69,1.11,5.56,1.55A.29.29,0,0,0,1314.82,189.35Z"/><path class="cls-65" d="M1313.23,191.7c-1.6-.38-3.23-.68-4.85-1-.28-.06-.41.37-.12.44,1.59.4,3.2.82,4.81,1.14C1313.45,192.37,1313.62,191.8,1313.23,191.7Z"/><path class="cls-62" d="M1296.74,201.93a9.83,9.83,0,0,0,1.21-.19,4.11,4.11,0,0,0,1.1-.61c3.27-2.28,7-4.23,11-4.34a2.77,2.77,0,0,1,1.37.21,2,2,0,0,1,1,1.41,3.91,3.91,0,0,1-1.38,3.65,11.5,11.5,0,0,1-3.57,2l-7.06,2.85c-1.81.73-3.74,1.47-5.67,1.15a6.07,6.07,0,0,1-.6-3.63A3.38,3.38,0,0,1,1296.74,201.93Z"/><path class="cls-33" d="M1295.09,211.74c2.93-.9,5.88-1.75,8.84-2.52l-4.28-11.17-4.82,2.11c0-1.2-.09-2.38-.14-3.53-.24-5.42-.52-11-2.63-15.89-8.75-20.3-20.13-12.85-28.63.43-6.24,9.76-10.93,22.67-11.89,30.05-1.4,10.69,0,69.87,6.89,78.61,3.57,4.48,32.1,8.15,37.18-9.2C1294.75,261.2,1295.37,234.13,1295.09,211.74Z"/><path class="cls-66" d="M1291.87,134.83a19.71,19.71,0,0,1,3.14,4.3,16.07,16.07,0,0,1,2.41,5.5,13.23,13.23,0,0,1,0,3.5,31.22,31.22,0,0,1-1.35,6h-1c.17-2.15.35-4.29.52-6.44a6.24,6.24,0,0,0,0-1.93,4,4,0,0,0-3.57-2.86,6.76,6.76,0,0,0-4.53,1.52,22.91,22.91,0,0,0-3.41,3.48q-2.25,2.59-4.66,5c-.53.53-1.28,1.09-1.95.76a4.5,4.5,0,0,1-.71-.61,1.82,1.82,0,0,0-2.54.46,2.27,2.27,0,0,0,.26,2.68,3,3,0,0,0,2.65.89l-.57,8.14a6.92,6.92,0,0,1-.4,2.22,4.57,4.57,0,0,1-4,2.54,9.9,9.9,0,0,1-4.83-1.29,11.86,11.86,0,0,1-3.63-2.63A5.77,5.77,0,0,1,1262,162a3.47,3.47,0,0,1,1.81-2.9,2.36,2.36,0,0,1,3.08.94c.46,1,.16,2.36,1,3a1.65,1.65,0,0,0,2.14-.59,4.29,4.29,0,0,0,.55-2.37c.06-4-.79-8-.92-12s.6-8.31,3.31-11.27a13.41,13.41,0,0,1,3.17-2.49,15.91,15.91,0,0,1,8-2.33A11.25,11.25,0,0,1,1291.87,134.83Z"/><path class="cls-19" d="M1037.22,212.49c2.82.09,6.7-1.14,5.71-4.85-.7-2.61-4.47-.55-5.43.79a7.39,7.39,0,0,0,.89,8.92c2.27,2.06,6.79,1.48,8.3-1.18a.6.6,0,0,0-1-.6c-1.19,2.1-5,2.43-6.66.73a6.35,6.35,0,0,1-1.3-5,4.52,4.52,0,0,1,1.13-2.58c.62-.63,2.14-1.51,2.94-.68l0,.62a2.42,2.42,0,0,1-1.86,2.46,7.49,7.49,0,0,1-2.71.21c-.76,0-.76,1.16,0,1.19Z"/><path class="cls-19" d="M1047.17,208.64a4.35,4.35,0,0,0-1.83-.14.6.6,0,0,0-.59.59c0,.29.28.64.59.59a3.66,3.66,0,0,1,1.51.1.59.59,0,0,0,.32-1.14Z"/><path class="cls-19" d="M1046.5,211.63h-1.66a.6.6,0,0,0,0,1.19h1.66a.6.6,0,0,0,0-1.19Z"/><path class="cls-19" d="M1049,205.63l2.91,8,1.08-.46a13.78,13.78,0,0,1-1.2-6.33l-.9.51a8.09,8.09,0,0,1,4,3.92.6.6,0,0,0,1.09-.45,19.66,19.66,0,0,1-1-5.68l-1,.42a15.06,15.06,0,0,1,3.61,5.47c.32.7,1.34.09,1-.6a15.66,15.66,0,0,0-3.79-5.71.61.61,0,0,0-1,.42,21,21,0,0,0,1.09,6l1.09-.45a9.09,9.09,0,0,0-4.46-4.36.6.6,0,0,0-.89.52,14.91,14.91,0,0,0,1.37,6.93c.27.61,1.31.18,1.08-.45l-2.91-8c-.26-.72-1.4-.41-1.14.31Z"/><path class="cls-19" d="M1061.59,203.4c-2.89-1.25-3.16,3.44-2.4,5.12a2.9,2.9,0,0,0,5.49-.46.59.59,0,0,0-1.14-.32,1.72,1.72,0,0,1-3.36,0c-.16-.46-.44-3.91.81-3.37.69.3,1.3-.72.6-1Z"/><path class="cls-19" d="M1061.78,199.25a1.79,1.79,0,0,1,1.28,2.7.6.6,0,0,0,.82.81l4.08-2.38a.59.59,0,0,0-.6-1l-4.08,2.37.81.82a3,3,0,0,0-2-4.45c-.74-.17-1.06,1-.31,1.15Z"/></g></g></svg>