<svg xmlns="http://www.w3.org/2000/svg" viewBox="0 0 1800 700"><defs><style>.cls-1{fill:#081b34;}.cls-2{fill:none;stroke:#fff;stroke-linecap:round;stroke-linejoin:round;stroke-width:8.37px;stroke-dasharray:16.74 33.49;opacity:0.8;}.cls-3{fill:#f9ee53;}.cls-4{fill:#231f20;}.cls-5{fill:#f5fbfb;}.cls-6{fill:#e9c83f;}.cls-7{fill:#f4e5d4;}.cls-8{fill:#e9ae7b;}.cls-9{fill:#772d2a;}.cls-10{fill:#c44a4d;}.cls-11{fill:#eaf0ec;}.cls-12{fill:#f3f3f3;}.cls-13{fill:#faa953;}</style></defs><title>Artboard 1 copy 3</title><g id="Layer_1" data-name="Layer 1"><rect class="cls-1" width="1800" height="700"/></g><g id="Layer_2" data-name="Layer 2"><path class="cls-2" d="M0,514.26c103.22,0,278.51,113.68,372.11,113.68"/><circle class="cls-3" cx="470.6" cy="625.76" r="16.23"/><path class="cls-3" d="M468.78,602.31a22.42,22.42,0,0,0-2.48-.2l-28.64-.73a23.53,23.53,0,0,0-24.13,22.93h0a23.53,23.53,0,0,0,22.93,24.12l28.64.73a20.59,20.59,0,0,0,2.49-.07Z"/><line class="cls-1" x1="441.52" y1="599.18" x2="440.26" y2="648.53"/><rect class="cls-4" x="416.21" y="620.49" width="49.36" height="6.74" transform="translate(-194.01 1048.69) rotate(-88.54)"/><path class="cls-5" d="M467.86,625.69s-17.51-7.46-26.94-21.82c-8.74-13.32-.36-30.1,9.78-33.26s26.2,5.91,26.94,21.82C478.44,609.76,467.86,625.69,467.86,625.69Z"/><path class="cls-5" d="M467.86,625.69s-17.87,6.56-28,20.42c-9.41,12.86-1.89,30,8.08,33.72s26.46-4.57,28-20.42C477.62,642.14,467.86,625.69,467.86,625.69Z"/><path class="cls-4" d="M482.27,619.58a3.36,3.36,0,0,1,2-3l6.38-2.76a3.37,3.37,0,0,1,2.68,6.19L487,622.76a3.36,3.36,0,0,1-4.71-3.18Z"/><path class="cls-4" d="M481.94,632.53a3.3,3.3,0,0,1,.35-1.41,3.35,3.35,0,0,1,4.51-1.52l6.23,3.08a3.37,3.37,0,1,1-3,6l-6.23-3.08A3.36,3.36,0,0,1,481.94,632.53Z"/></g><g id="Layer_4" data-name="Layer 4"><path class="cls-6" d="M1321.16,421.65h-41c-8.44,3-17.77,2.57-26.33,0h-52.38c-4.16,10.26-6.54,22.31-7.61,30.84-3.54,28.35-5.2,57.58-8,86.18-1.9,19.49-3.79,39-5.53,58.49h170.32c-5.16-57.84-11.13-116-27.67-170.46C1322.45,425,1321.84,423.33,1321.16,421.65Z"/><path class="cls-7" d="M1262.87,406.56c6.8.47,13.34-3,18.45-7.49,19-16.81,20.71-45.36,21-70.73,0-2.69,0-5.53-1.33-7.86-2.07-3.59-6.57-4.85-10.63-5.65-17.55-1.37-34.92-1.94-52.66-2.47a7.32,7.32,0,0,0-4.33.76,6.58,6.58,0,0,0-2.31,4.05c-1.81,7.16,0,14.94-.73,22.35a121.57,121.57,0,0,0-.27,22.89c1.42,14.8,7.06,28.9,19.1,38.21C1253.13,403.71,1257.82,406.2,1262.87,406.56Z"/><path class="cls-8" d="M1322.66,307.94c-2.3-9.22-11.61-15.37-21-16.73a35.37,35.37,0,0,0-24,5.22c-2.31,1.48-4.64,3.31-7.38,3.34a12.22,12.22,0,0,1-5.55-1.81l-12.83-6.65c-6.85-3.54-13.92-7.15-21.61-7.82s-16.21,2.34-19.8,9.16a19.42,19.42,0,0,0-1.3,13.1,47.62,47.62,0,0,0,5.14,12.37c1.85,3.37,3.89,6.76,6.91,9.14,3.91,3.09,9.07,4.14,14,4.41,11,.61,22-2.1,32.48-5.47a92.52,92.52,0,0,0,17.66-7.3l-1.3,1q2.41,5,4.84,9.91a52.08,52.08,0,0,1,3.84,9.35c2.39,9-.14,18.46-.12,27.76,0,2.58.77,5.83,3.31,6.3,2.25.42,4.09-1.72,5.3-3.66,5.14-8.17,9.06-17,13-25.86,3.63-8.22,7.3-16.56,8.57-25.46A26.87,26.87,0,0,0,1322.66,307.94Z"/><path class="cls-9" d="M1295,324.56c-3.8,2.42-5.9,7.64-6.12,12.75s1.18,10.12,2.94,14.79c.87,2.29,1.89,4.63,3.64,6s4.21,1.69,6.44,1.78c3.05.11,6.28,0,8.88-1.83,3.36-2.43,4.83-7.23,6-11.7.94-3.67,1.83-7.61.92-11.3s-3.85-9.45-7.08-11C1306.2,321.91,1299.15,321.88,1295,324.56Z"/><path class="cls-10" d="M1297.58,325c-2.2,2.16-2.89,5.39-3.46,8.42a47.31,47.31,0,0,0-1.23,10.84,37.12,37.12,0,0,0,1.83,9.37,14.23,14.23,0,0,0,2.26,4.88,10.71,10.71,0,0,0,3.21,2.57c3.09,1.71,6.91,2.43,10.19,1.14,4.93-1.93,7.22-7.54,8.52-12.68,1.72-6.78,2.62-14.19-.23-20.58a10,10,0,0,0-8.55-6.29C1305.87,322.35,1300.94,321.72,1297.58,325Z"/><path class="cls-9" d="M1304.06,330.14a24.13,24.13,0,0,0-1.26-7.94,23.69,23.69,0,0,0-3.16-5.14,43,43,0,0,0-7.59-8.6c-9.58-7.58-24.24-6.21-33.43-14.26,3.92-1.53,8.31-.54,12.39.46l8.61,2.12a86,86,0,0,1,10.85,3.18,87.79,87.79,0,0,1,10.07,5c2.38,1.3,4.81,2.65,6.52,4.75a17.94,17.94,0,0,1,3.15,7.5c2.39,10.65,1.86,21.71,1.32,32.61-.06,1.07-4.86.49-5.45.16-1.87-1-1.28-3.25-1.37-5.28Q1304.38,337.39,1304.06,330.14Z"/><path class="cls-7" d="M1212.24,431.49c-15.48,4.93-17.8,1.12-29,33.49s-20.68,57.49-20.68,57.49-8.37-69.21-25.67-91-34.6-30.14-34.05-22.32-19-5.76-21.76,4.37-1.68,13.49,7.81,18.51,22.33-3.35,29,2.79,18.71,45.06,21.77,80.37c3.35,38.69,10.63,38,12.3,38s25.88,9.48,42.51-39.63,28-47.53,28-47.53Z"/><path class="cls-7" d="M1325.49,431.49c15.47,4.93,17.8,1.12,29,33.49s20.68,57.49,20.68,57.49,8.37-69.21,25.67-91,34.6-30.14,34.05-22.32,19-5.76,21.76,4.37,1.68,13.49-7.81,18.51-22.33-3.35-29,2.79-18.71,45.06-21.77,80.37c-3.35,38.69-10.63,38-12.3,38s-25.88,9.48-42.51-39.63-28-47.53-28-47.53Z"/><path class="cls-6" d="M1208.66,496.14l-38.84-20s15.76-49.31,31.6-58.45,40.33-5.95,62.41-7,60-3.27,71.2,12.36,35.16,56.37,35.16,56.37L1318,490l-15.74-37Z"/><path class="cls-11" d="M1327.88,597.16A628,628,0,0,0,1317.7,528c-7.46-35.58-23.55-68.6-33.15-103.58-2.82-10.3-7.54-10.35-20.72-9.76a27.49,27.49,0,0,0-7.93.46c-8.49-.5-5.63,1-12.54-1.07-7.7-2.35-15.72,3.73-15.72,10.13,0,6.82-.12,13.66-.32,20.51a889.75,889.75,0,0,0-23.12,152.46Z"/><rect class="cls-12" x="1055.3" y="131.77" width="277.78" height="93.77" rx="29.59"/><rect class="cls-12" x="937.04" y="270.45" width="214.05" height="60.65" rx="23.72"/><rect class="cls-12" x="1380.2" y="171.15" width="199.85" height="89.18" rx="27.04"/><rect class="cls-12" x="1265.46" y="237.82" width="33.76" height="17.91" rx="8.95"/><rect class="cls-12" x="1419.23" y="270.45" width="33.76" height="17.91" rx="8.95"/><rect class="cls-12" x="1094.39" y="341.43" width="33.76" height="17.91" rx="8.95"/><rect class="cls-12" x="1116.12" y="368.19" width="13.03" height="13.03" rx="6.52"/><rect class="cls-12" x="1275.83" y="263.93" width="13.03" height="13.03" rx="6.52"/><rect class="cls-12" x="1406.2" y="293.41" width="13.03" height="13.03" rx="6.52"/><path class="cls-13" d="M997,312a1.67,1.67,0,0,1-1.66-1.66V293.49a1.55,1.55,0,0,1,.49-1.17,1.62,1.62,0,0,1,2.34,0,1.55,1.55,0,0,1,.49,1.17V310.3A1.67,1.67,0,0,1,997,312Z"/><path class="cls-13" d="M1012,312a10.07,10.07,0,1,1,6.14-18,1.65,1.65,0,0,1,.3,2.34,1.58,1.58,0,0,1-1.1.63,1.66,1.66,0,0,1-1.24-.32,6.72,6.72,0,1,0,.44,10.31,1.59,1.59,0,0,1,1.19-.43,1.69,1.69,0,0,1,1.6,1.74,1.61,1.61,0,0,1-.54,1.16A9.76,9.76,0,0,1,1012,312Z"/><path class="cls-13" d="M1035.35,305.94a5.92,5.92,0,0,1-2,4.27,6.53,6.53,0,0,1-4.57,1.75,8.44,8.44,0,0,1-4.11-1,5.3,5.3,0,0,1-2.78-3.43,1.63,1.63,0,0,1,.17-1.26,1.59,1.59,0,0,1,1-.76,1.64,1.64,0,0,1,1.26.17,1.59,1.59,0,0,1,.76,1,2.32,2.32,0,0,0,1.38,1.48,5.51,5.51,0,0,0,2.31.47,3.34,3.34,0,0,0,2.27-.83,2.71,2.71,0,0,0,1-2,1.72,1.72,0,0,0-.52-1.31,4,4,0,0,0-2.93-1h-.07a7.1,7.1,0,0,1-5.28-2,4.89,4.89,0,0,1-1.41-3.73,6,6,0,0,1,2-4.29,6.54,6.54,0,0,1,4.57-1.74,8.44,8.44,0,0,1,4.11,1,5.34,5.34,0,0,1,2.78,3.44,1.64,1.64,0,0,1-.18,1.26,1.6,1.6,0,0,1-1,.76,1.68,1.68,0,0,1-1.26-.17,1.63,1.63,0,0,1-.76-1,2.34,2.34,0,0,0-1.39-1.48,5.43,5.43,0,0,0-2.3-.46,3.32,3.32,0,0,0-2.28.83,2.75,2.75,0,0,0-1,2,1.75,1.75,0,0,0,.52,1.32,4,4,0,0,0,2.93.95h.07a7.07,7.07,0,0,1,5.28,2A4.87,4.87,0,0,1,1035.35,305.94Z"/><path class="cls-13" d="M1050.33,296.63a1.66,1.66,0,0,1-2.12-1,1.6,1.6,0,0,1,0-1.27,1.65,1.65,0,0,1,1-.86l4.34-1.58a1.59,1.59,0,0,1,1.52.21,1.56,1.56,0,0,1,.7,1.36V310.3a1.66,1.66,0,0,1-1.66,1.66,1.67,1.67,0,0,1-1.66-1.66V295.85Z"/><path class="cls-13" d="M1066.89,296.63a1.66,1.66,0,1,1-1.12-3.13l4.34-1.58a1.59,1.59,0,0,1,1.52.21,1.56,1.56,0,0,1,.7,1.36V310.3a1.66,1.66,0,0,1-1.66,1.66,1.67,1.67,0,0,1-1.66-1.66V295.85Z"/><path class="cls-13" d="M1083.45,296.63a1.66,1.66,0,1,1-1.12-3.13l4.34-1.58a1.59,1.59,0,0,1,1.52.21,1.56,1.56,0,0,1,.7,1.36V310.3a1.66,1.66,0,0,1-1.66,1.66,1.67,1.67,0,0,1-1.66-1.66V295.85Z"/><path class="cls-13" d="M1112.92,191.5a13.59,13.59,0,1,1,8.29-24.35,2.23,2.23,0,0,1,.85,1.48,2.28,2.28,0,0,1-1.94,2.53,2.25,2.25,0,0,1-1.67-.44,9.07,9.07,0,1,0,.59,13.92,2.13,2.13,0,0,1,1.61-.59,2.09,2.09,0,0,1,1.56.74,2.16,2.16,0,0,1,.59,1.62,2.09,2.09,0,0,1-.72,1.55A13.18,13.18,0,0,1,1112.92,191.5Z"/><path class="cls-13" d="M1147.67,191.5a2.25,2.25,0,0,1-2.26-2.26v-9.11H1133.7v9.11a2.24,2.24,0,0,1-.65,1.6,2.19,2.19,0,0,1-1.6.66,2.27,2.27,0,0,1-2.26-2.26V166.52a2.26,2.26,0,0,1,3.86-1.6,2.24,2.24,0,0,1,.65,1.6v9.1h11.71v-9.1a2.26,2.26,0,1,1,4.52,0v22.72a2.25,2.25,0,0,1-2.26,2.26Z"/><path class="cls-13" d="M1174.16,187a2.11,2.11,0,0,1,1.57.66,2.16,2.16,0,0,1,.67,1.6,2.27,2.27,0,0,1-2.24,2.24h-13.77a2.25,2.25,0,0,1-2.24-2.24v-22.8a2.16,2.16,0,0,1,.66-1.6,2.13,2.13,0,0,1,1.58-.66h0l13.75,0a2.17,2.17,0,0,1,1.59.66,2.24,2.24,0,0,1,.65,1.6,2.27,2.27,0,0,1-2.24,2.24h0l-11.49,0v6.9h8.29a2.24,2.24,0,1,1,0,4.48h-8.29V187Z"/><path class="cls-13" d="M1207.75,164.24a2.27,2.27,0,0,1,1.64,2.16v22.86a2.25,2.25,0,1,1-4.49,0V174.47l-7.09,11.71v0l0,0h0l0,0-.08.14-.05.07-.1.1-.07.07-.08.08a.35.35,0,0,1-.11.09l-.06.06-.13.08a0,0,0,0,1,0,0l0,0h0a.5.5,0,0,1-.13.07l-.06,0-.11,0a2.24,2.24,0,0,1-.92.17h0s0,0-.07,0a2.19,2.19,0,0,1-.5-.09l-.07,0-.08,0-.13-.06,0,0-.15-.07h0l0,0,0,0-.13-.1s0,0-.06,0a.35.35,0,0,1-.11-.09l-.08-.08-.07-.07a.46.46,0,0,0-.1-.1.78.78,0,0,1,0-.07l-.09-.14,0,0h0v0s0,0,0,0l-7.07-11.71v14.79a2.12,2.12,0,0,1-.67,1.58,2.17,2.17,0,0,1-1.59.66,2.27,2.27,0,0,1-2.25-2.24V166.4a2.14,2.14,0,0,1,.46-1.35,2.2,2.2,0,0,1,1.2-.81,2.3,2.3,0,0,1,1.42.07,2.23,2.23,0,0,1,1.1.93l9.36,15.46,9.35-15.46a2.21,2.21,0,0,1,1.09-.93l.7-.26Z"/><path class="cls-13" d="M1231.42,170.82a2.25,2.25,0,0,1-1.71-.08,2.25,2.25,0,0,1,.19-4.15l5.86-2.13a2.18,2.18,0,0,1,2,.29,2.11,2.11,0,0,1,1,1.83v22.68a2.17,2.17,0,0,1-.64,1.58,2.21,2.21,0,0,1-1.6.66,2.13,2.13,0,0,1-1.58-.66,2.15,2.15,0,0,1-.67-1.58V169.77Z"/><path class="cls-13" d="M1257.79,175.61a7.93,7.93,0,1,1-7.94,7.94,8.09,8.09,0,0,1,.41-2.54l0,0,0-.08a.25.25,0,0,0,0-.09l5.34-15.08a2.14,2.14,0,0,1,1.14-1.27,2.17,2.17,0,0,1,1.71-.1,2.12,2.12,0,0,1,1.28,1.14,2.21,2.21,0,0,1,.09,1.73l-3,8.44A6.35,6.35,0,0,1,1257.79,175.61Zm0,11.4a3.43,3.43,0,1,0-2.45-1A3.37,3.37,0,0,0,1257.79,187Z"/><path class="cls-13" d="M1288.19,189.26a2.25,2.25,0,0,1-2.24,2.24h-11.46a2.25,2.25,0,0,1-1.85-3.52l10.14-14.73a3.36,3.36,0,0,0-.77-3.58,3.36,3.36,0,0,0-5.72,2.38,1.79,1.79,0,0,0,0,.23,2.11,2.11,0,0,1-.57,1.62,2.23,2.23,0,0,1-3.16.2,2.14,2.14,0,0,1-.76-1.54c0-.17,0-.34,0-.51a7.84,7.84,0,1,1,15.68,0,7.83,7.83,0,0,1-.68,3.2,3.13,3.13,0,0,1-.19.36l-7.86,11.4H1286a2.16,2.16,0,0,1,1.58.65A2.19,2.19,0,0,1,1288.19,189.26Z"/><path class="cls-13" d="M1418.65,226.76a1.86,1.86,0,0,1-1-1,1.83,1.83,0,0,1,0-1.45l2.05-4.92v0L1425.6,205a1.3,1.3,0,0,1,.08-.17l0-.08.07-.08s0,0,0-.08l.06-.06,0-.07a.21.21,0,0,0,.06-.08l.07,0a.21.21,0,0,1,.08-.06s0,0,.06-.05l.08-.06.07-.05.09,0,.12-.05,0,0,.06,0a.23.23,0,0,0,.11,0l.12,0h.06l.11,0,.08,0h.38l.09,0,.08,0,.12,0h.06a1.6,1.6,0,0,1,.35.15l.07,0,.1.07.06.05.08.06.07,0a.21.21,0,0,0,.08.06s0,0,0,.07.07.07.07.08l0,.06.06.08a.28.28,0,0,0,0,.08.59.59,0,0,1,0,.08,1.3,1.3,0,0,1,.08.17l5.93,14.31v0l2,4.92a1.92,1.92,0,0,1,0,1.45,1.93,1.93,0,0,1-1.76,1.18,1.75,1.75,0,0,1-1.75-1.18L1432,222h-9.34l-1.55,3.74a1.76,1.76,0,0,1-1.75,1.18H1419Zm11.8-8.56-3.11-7.48-3.09,7.48Z"/><path class="cls-13" d="M1457.45,210.48a6.14,6.14,0,0,1-1.33,3.85,6.82,6.82,0,0,1-3.35,2.43l3.66,7.42a1.92,1.92,0,0,1-.87,2.53,1.92,1.92,0,0,1-.84.2,1.75,1.75,0,0,1-1.69-1.07l-4.27-8.66h-3.28v7.7a1.83,1.83,0,0,1-.56,1.33,1.81,1.81,0,0,1-1.34.55,1.88,1.88,0,0,1-1.89-1.88V205.65a1.91,1.91,0,0,1,1.89-1.9h6.67a7.15,7.15,0,0,1,5.08,2A6.27,6.27,0,0,1,1457.45,210.48Zm-7.07,2.91a3.63,3.63,0,0,0,2.33-.88,2.65,2.65,0,0,0,0-4.11,3.59,3.59,0,0,0-2.41-.86h-4.77v5.85Z"/><path class="cls-13" d="M1467.43,207.56h-4.79a1.81,1.81,0,0,1-1.35-.57,1.9,1.9,0,0,1,0-2.67,1.81,1.81,0,0,1,1.35-.57H1476a1.91,1.91,0,0,1,0,3.81h-4.81V225a1.9,1.9,0,0,1-3.24,1.36,1.88,1.88,0,0,1-.56-1.36Z"/><path class="cls-13" d="M1493.84,209.36a1.87,1.87,0,0,1-1.45-.06,1.89,1.89,0,0,1-1-1.08,1.87,1.87,0,0,1,.06-1.45,1.91,1.91,0,0,1,1.08-1l5-1.8a1.81,1.81,0,0,1,1.74.24,1.79,1.79,0,0,1,.81,1.55V225a1.91,1.91,0,0,1-1.91,1.91,1.95,1.95,0,0,1-1.9-1.91V208.48Z"/><path class="cls-13" d="M1520.51,203.74a1.9,1.9,0,0,1,1.78,2.58l-7.49,19.36a1.71,1.71,0,0,1-.71.9,1.82,1.82,0,0,1-1.06.33,2,2,0,0,1-.69-.13,1.88,1.88,0,0,1-1-1,1.79,1.79,0,0,1,0-1.47l6.46-16.77h-7.14a1.91,1.91,0,0,1-1.9-1.9,1.88,1.88,0,0,1,.56-1.36,1.84,1.84,0,0,1,1.34-.54Z"/><path class="cls-13" d="M1535.16,213.43a6.72,6.72,0,1,1-6.75,6.74,6.57,6.57,0,0,1,.36-2.16s0,0,0,0v-.06a.27.27,0,0,0,0-.08l4.54-12.79a1.83,1.83,0,0,1,1-1.08,1.88,1.88,0,0,1,1.45-.08,1.79,1.79,0,0,1,1.08,1,1.83,1.83,0,0,1,.08,1.47l-2.53,7.15A6.28,6.28,0,0,1,1535.16,213.43Zm0,9.67a2.94,2.94,0,1,0-2.08-5,2.95,2.95,0,0,0,0,4.16A2.85,2.85,0,0,0,1535.16,223.1Z"/></g></svg>