<svg xmlns="http://www.w3.org/2000/svg" xmlns:xlink="http://www.w3.org/1999/xlink" viewBox="0 0 1800 700"><defs><style>.cls-1{mask:url(#mask);filter:url(#luminosity-noclip-2);}.cls-2,.cls-23{mix-blend-mode:multiply;}.cls-2{fill:url(#linear-gradient);}.cls-3,.cls-6{fill:none;}.cls-4{isolation:isolate;}.cls-5{fill:#081b34;}.cls-6{stroke:#fff;stroke-linecap:round;stroke-linejoin:round;stroke-width:8.37px;stroke-dasharray:16.74 33.49;opacity:0.8;}.cls-7{fill:#f9ee53;}.cls-8{fill:#231f20;}.cls-9{fill:#f5fbfb;}.cls-10{fill:#aa6429;}.cls-11{fill:#aea236;}.cls-12{fill:#faa953;}.cls-13{fill:#9ed6c3;}.cls-14{fill:#4d4c4c;}.cls-15{fill:#efded0;}.cls-16{fill:#545454;}.cls-17{fill:#f7f8f8;}.cls-18{fill:#f1f0f0;}.cls-19{fill:#eedcd2;}.cls-20{fill:#be6b64;}.cls-21{fill:#917b6e;}.cls-22{mask:url(#mask-2);}.cls-23{opacity:0.2;}.cls-24{clip-path:url(#clip-path);}.cls-25{fill:#010101;}.cls-26{fill:#f4e5d4;}.cls-27{fill:#e9c83f;}.cls-28{fill:#eedccf;}.cls-29{fill:#7a6457;}.cls-30{fill:#676767;}.cls-31{fill:#772d2a;}.cls-32{fill:#fff;}.cls-33{fill:#5d635e;}.cls-34{fill:#eaf0ec;}.cls-35{fill:#e9ae7b;}.cls-36{fill:#303d4c;}.cls-37{fill:#c44a4d;}.cls-38{fill:#f7e4d7;}.cls-39{fill:#a18775;}.cls-40{fill:#303030;}.cls-41{fill:#8abb9e;}.cls-42{fill:#624a3f;}.cls-43{filter:url(#luminosity-noclip);}</style><filter id="luminosity-noclip" x="625" y="-5742" width="81.59" height="32766" filterUnits="userSpaceOnUse" color-interpolation-filters="sRGB"><feFlood flood-color="#fff" result="bg"/><feBlend in="SourceGraphic" in2="bg"/></filter><mask id="mask" x="625" y="-5742" width="81.59" height="32766" maskUnits="userSpaceOnUse"><g class="cls-43"/></mask><linearGradient id="linear-gradient" x1="625" y1="455.99" x2="706.59" y2="455.99" gradientUnits="userSpaceOnUse"><stop offset="0" stop-color="#fff"/><stop offset="1"/></linearGradient><filter id="luminosity-noclip-2" x="622.24" y="449.57" width="84.45" height="12.79" filterUnits="userSpaceOnUse" color-interpolation-filters="sRGB"><feFlood flood-color="#fff" result="bg"/><feBlend in="SourceGraphic" in2="bg"/></filter><mask id="mask-2" x="622.24" y="449.57" width="84.45" height="12.79" maskUnits="userSpaceOnUse"><g class="cls-1"><path class="cls-2" d="M691.6,461.61c5,.06,10.63-.15,13.79-3.55a3.68,3.68,0,0,0,1.19-2.81c-.26-2.22-3.25-3.17-5.72-3.54-14.37-2.14-29.06-1.3-43.6-.46-9.08.53-18.26,1.07-26.92,3.55-4.51,1.29-8.1,4.64-2.4,6.12,5.51,1.44,14,.06,19.75.13Z"/></g></mask><clipPath id="clip-path"><path class="cls-3" d="M691.6,461.61c5,.06,10.63-.15,13.79-3.55a3.68,3.68,0,0,0,1.19-2.81c-.26-2.22-3.25-3.17-5.72-3.54-14.37-2.14-29.06-1.3-43.6-.46-9.08.53-18.26,1.07-26.92,3.55-4.51,1.29-8.1,4.64-2.4,6.12,5.51,1.44,14,.06,19.75.13Z"/></clipPath></defs><title>Artboard 1 copy 4</title><g class="cls-4"><g id="Layer_1" data-name="Layer 1"><rect class="cls-5" width="1800" height="700"/></g><g id="Layer_2" data-name="Layer 2"><path class="cls-6" d="M1800.23,61.7c-62.87,0-246.91,56.78-246.91,146.16s116.71,63.39,109,24.09-107.73-12.68-36.55,112.83,148.13,281.46,0,281.46"/><circle class="cls-7" cx="1540.97" cy="591" r="15.21"/><path class="cls-7" d="M1532.22,611.24c.63.44,1.28.86,2,1.25l23.43,13.13a22.06,22.06,0,0,0,30-8.46h0a22.06,22.06,0,0,0-8.46-30L1555.77,574a22.63,22.63,0,0,0-2.1-1Z"/><line class="cls-5" x1="1553.46" y1="625.75" x2="1576.08" y2="585.39"/><rect class="cls-8" x="1541.64" y="602.41" width="46.27" height="6.32" transform="translate(271.4 1674.41) rotate(-60.73)"/><path class="cls-9" d="M1543.21,592.25s11.26,13.85,12.79,29.88c1.43,14.86-12.87,25.11-22.65,23.29s-19.14-16.35-12.79-29.87C1527.47,600.83,1543.21,592.25,1543.21,592.25Z"/><path class="cls-9" d="M1543.21,592.25s17.69,2.38,32.16-4.67c13.42-6.55,14.71-24.09,8.05-31.49s-23.94-7.79-32.16,4.68C1542.31,574.35,1543.21,592.25,1543.21,592.25Z"/><path class="cls-8" d="M1528.59,591a3.14,3.14,0,0,1-3,1.6l-6.49-.5a3.16,3.16,0,1,1,.48-6.3l6.5.5a3.15,3.15,0,0,1,2.51,4.7Z"/><path class="cls-8" d="M1534.53,580.43a3.31,3.31,0,0,1-.9,1,3.17,3.17,0,0,1-4.42-.71l-3.81-5.28a3.16,3.16,0,1,1,5.12-3.7l3.81,5.28A3.16,3.16,0,0,1,1534.53,580.43Z"/></g><g id="Layer_4" data-name="Layer 4"><polygon class="cls-10" points="563.84 402.37 348.73 402.37 358.73 368.89 553.84 368.89 563.84 402.37"/><polygon class="cls-11" points="348.73 476.7 133.62 476.7 143.62 443.21 348.73 443.21 348.73 476.7"/><polygon class="cls-11" points="778.95 476.7 563.84 476.7 563.84 443.21 768.95 443.21 778.95 476.7"/><rect class="cls-12" x="348.73" y="402.37" width="215.11" height="194.79"/><rect class="cls-7" x="133.62" y="476.7" width="215.11" height="120.46"/><rect class="cls-7" x="563.84" y="476.7" width="215.11" height="120.46"/><path class="cls-11" d="M252.17,551.87a2.92,2.92,0,0,1-2.88,2.88H234.57a2.7,2.7,0,0,1-2.54-1.54,2.73,2.73,0,0,1,.17-3l13-18.92a4.21,4.21,0,0,0,.29-1.54,4.15,4.15,0,0,0-1.27-3,4.32,4.32,0,0,0-6.08,0,4.15,4.15,0,0,0-1.27,3,1.36,1.36,0,0,0,0,.29,2.94,2.94,0,0,1-2.71,3.06,2.81,2.81,0,0,1-2.08-.71,2.75,2.75,0,0,1-1-2c0-.23,0-.45,0-.66a10.07,10.07,0,1,1,20.14,0,9.82,9.82,0,0,1-.88,4.1,2.08,2.08,0,0,1-.24.47L240.07,549h9.22a2.77,2.77,0,0,1,2,.83A2.81,2.81,0,0,1,252.17,551.87Z"/><path class="cls-11" d="M681.88,544.54a10.21,10.21,0,0,1-20.41,0,2.7,2.7,0,0,1,.86-2,2.73,2.73,0,0,1,2-.85,2.76,2.76,0,0,1,2,.85,2.73,2.73,0,0,1,.85,2,4.46,4.46,0,1,0,4.45-4.44,2.68,2.68,0,0,1-2.42-1.32,2.72,2.72,0,0,1-.2-2.76l4.84-10.5h-9.55a2.92,2.92,0,0,1-2.88-2.88,2.88,2.88,0,0,1,2.88-2.88h14a2.87,2.87,0,0,1,2.61,4.08l-5.22,11.35a10.15,10.15,0,0,1,4.39,3.71A10,10,0,0,1,681.88,544.54Z"/><path class="cls-10" d="M451.76,456.74a2.85,2.85,0,0,1-2.2-.1,2.82,2.82,0,0,1-1.49-1.63,2.85,2.85,0,0,1,.1-2.2,2.82,2.82,0,0,1,1.63-1.49l7.52-2.73A2.77,2.77,0,0,1,460,449a2.72,2.72,0,0,1,1.22,2.35v29.12a2.87,2.87,0,0,1-2.88,2.88,2.9,2.9,0,0,1-2.88-2.88v-25Z"/><path class="cls-13" d="M479.27,372.66a11.55,11.55,0,0,0,7.32-1.84l-11.1-25.05a37.86,37.86,0,0,1-4.14-18.67q-.69-20.64-1.37-41.28a8.59,8.59,0,0,0-.58-3.39c-1.42-3-5.51-3.28-8.82-3.12a2.37,2.37,0,0,0-2.73,2.92c-.19,10.86-2.05,1-2.25,11.9-.07,3.81,1.53,28.34,2.31,32.08,1.38,6.61,3.44,13.5,7,19.23C470.39,354.27,473.85,362.24,479.27,372.66Z"/><path class="cls-13" d="M448.81,284.08l-13.75-1.73c-.22-.62.92,0,.84.67a303.1,303.1,0,0,0-.61,62.59c.84,9,2.08,18,1.23,26.95l5.65.55,10.26-83.93c.17-1.41.28-3-.73-4.06A4.76,4.76,0,0,0,448.81,284.08Z"/><path class="cls-14" d="M467.46,177.08c3.39,1.59,4.7,5.67,5.45,9.34,1.07,5.2,1.72,10.47,2.37,15.74,1,8.12,2,16.25,2.48,24.42,1.11,20-1,40.47,4.08,59.84.71,2.68,1.48,5.81-.21,8-1.35,1.76-3.77,2.21-6,2.48a149.45,149.45,0,0,1-49.46-2.18,9.38,9.38,0,0,1-3.38-1.21c-2.17-1.46-2.81-4.37-2.76-7,.18-8.51,5.65-15.87,8.43-23.9,4.9-14.17,1.25-29.73,2.34-44.67.94-12.86,5.39-25.21,10.73-36.94a6,6,0,0,1,1.78-2.59c3.53-2.5,8.25,2.84,12.33,1.45S462.66,174.83,467.46,177.08Z"/><path class="cls-15" d="M429.25,175.66a4.07,4.07,0,0,0-1.48-2.21c-.34-.31-.69-.63-1.06-.92a9.68,9.68,0,0,0-6.78-2,3.26,3.26,0,0,0-1.92.67,2.52,2.52,0,0,0-.75,1.47,1,1,0,0,0,0,.39c.09.46.65.62,1.11.69a3.13,3.13,0,0,1,1.38.45,1,1,0,0,1,.38,1.28c-.11.19-.3.34-.35.56s.29.66.65.78c1.31.44,2.76-.25,4.11,0,.42.09.81.27,1.22.38a1.78,1.78,0,0,0,1.25-.07q.58-.07,1.17-.21a1.45,1.45,0,0,0,1-.58A1.09,1.09,0,0,0,429.25,175.66Z"/><path class="cls-16" d="M407.44,160.26a51.56,51.56,0,0,1,9.52-.8,2.83,2.83,0,0,1,1.76.51,3,3,0,0,1,.71,1.55q4.88,21,9.76,42.06a1.71,1.71,0,0,1,.07.71c-.1.54-.64.87-1.13,1.11-8.16,3.95-17.57,4.12-26.64,4.21a3.87,3.87,0,0,1-2.26-.46A3.72,3.72,0,0,1,398,207c-3.69-13.24-4.56-27.1-7.64-40.5a5.41,5.41,0,0,1-.15-2.87c.67-2,5.38-1.63,7.1-1.88Z"/><path class="cls-17" d="M407.6,162.05a50.94,50.94,0,0,1,8.79-.79,2.59,2.59,0,0,1,1.61.43,2.28,2.28,0,0,1,.64,1.34l8.58,36.45a1.48,1.48,0,0,1,.06.62c-.1.47-.6.76-1.06,1-7.56,3.53-16.24,3.76-24.6,3.93a3.59,3.59,0,0,1-2.09-.37,3.1,3.1,0,0,1-1.08-1.87c-3.27-11.46-3.93-23.51-6.64-35.12a4.41,4.41,0,0,1-.1-2.49c.64-1.77,5-1.47,6.56-1.71Z"/><path class="cls-14" d="M445.64,194.16c-2.42-3-4.09-6.56-6.56-9.51-3.33-4-6.89-6.85-9.1-11.54-1,1.61-4.49,3.22-5.53,4.83,4,5.45,8,10,9.71,17.52.78,3.46,4.54,8.62,6.33,11.68a20.5,20.5,0,0,0,3.61,4.38c3,2.85,6.45,5.37,10.49,6.08,6.13,1.09,12.11-2.95,12-9.5-.12-5.88-8.1-5.34-12.12-7.16A24,24,0,0,1,445.64,194.16Z"/><path class="cls-3" d="M407.6,162.05a50.94,50.94,0,0,1,8.79-.79,2.59,2.59,0,0,1,1.61.43,2.28,2.28,0,0,1,.64,1.34l8.58,36.45a1.48,1.48,0,0,1,.06.62c-.1.47-.6.76-1.06,1-7.56,3.53-16.24,3.76-24.6,3.93a3.59,3.59,0,0,1-2.09-.37,3.1,3.1,0,0,1-1.08-1.87c-3.27-11.46-3.93-23.51-6.64-35.12a4.41,4.41,0,0,1-.1-2.49c.64-1.77,5-1.47,6.56-1.71Z"/><path class="cls-18" d="M468.57,171.63a5.77,5.77,0,0,1,2.78-.6,3.91,3.91,0,0,1,2.81,2.68c13.43,31.27,10.16,64.44,6.73,96.56a117.37,117.37,0,0,0-28.56-.92c-1.86-4.06-2.41-8.35-2.83-12.59a237.75,237.75,0,0,1,6.65-84.1A23.61,23.61,0,0,0,468.57,171.63Z"/><path class="cls-18" d="M440.05,179.85a60.5,60.5,0,0,0,4.95-7.59,8.27,8.27,0,0,0,5.39,2c-10.5,20.94-10.17,44.43-9.69,67.3q.29,14,.58,28.1a68.55,68.55,0,0,0-18.34-1.23c3.52-7.73,6.15-15.85,6-24.18-.08-5.11-1.21-10.21-1.77-15.32A71.76,71.76,0,0,1,440.05,179.85Z"/><path class="cls-19" d="M458.77,169.37a13,13,0,0,0,4.11-5.51c1.9-4.51,3.35-9.35,3-14.16-.39-5.53-4-12.1-10-12.67-7-.67-9.62,8.15-11.21,14.06-1.26,4.7-1.32,9.87.84,14C448.8,171.37,454.47,172.56,458.77,169.37Z"/><path class="cls-20" d="M475.88,172.15c.28-2.21-1.17-4.37-1.5-6.56-.66-4.44.76-8.37,2.4-12.54,1.91-4.85.91-8.36-1.71-12.33a19.91,19.91,0,0,0-20-8.71l-.62.13a16.83,16.83,0,0,0-7,7.15A16,16,0,0,0,446,146c0,.3.09.6.14.9.55-2.3,1.43-4.71,2.7-5.16s6.15,2.34,7.77,2.51c2.73.3,7.85-.69,8.72,2.82.43,1.76-.78,3.53-1.71,5-1.91,3-2.61,3.22-3,6.67-.73,7-5.71,12.08-1.73,18.38,2.92,4.62,8.17,5.94,12.85,1.74C473.26,177.44,475.6,174.35,475.88,172.15Z"/><path class="cls-17" d="M413,207a.93.93,0,0,0,.3.29,1.43,1.43,0,0,0,.85.24,1.17,1.17,0,0,0,.13-2.33C413.49,205.14,412.52,206.26,413,207Z"/><path class="cls-15" d="M422,207.41a12.48,12.48,0,0,0-1-2.87,7.83,7.83,0,0,0-2.84-2.79,3.13,3.13,0,0,0-2.4-.54,2.34,2.34,0,0,0-1.49,1.57,4.63,4.63,0,0,0-.08,2.22c.52,3.11,3.64,8.13,7.35,7.31.65-.15,1.38-.54,1.45-1.21a1.92,1.92,0,0,0-.11-.71C422.52,209.39,422.24,208.4,422,207.41Z"/><path class="cls-14" d="M458.55,221.07c-1.81,4.29-4.3,9-8.82,10.15-3,.73-6.05-.34-8.85-1.56a76.9,76.9,0,0,1-15.76-9.25c-3.08-2.35-6.28-5.78-5.36-9.54a2.4,2.4,0,0,1,.91-1.48c1.17-.77,2.63.3,3.66,1.24a37.49,37.49,0,0,0,18.12,9.1,6.15,6.15,0,0,0,2.56.11c2.19-.51,3.25-2.94,4-5.07q4.25-12.68,7.27-25.7a13.45,13.45,0,0,1,1.75-4.8,6.78,6.78,0,0,1,7.05-2.63c8.42,2.14,3.41,12.14,1.72,17.35Q463.14,210.21,458.55,221.07Z"/><path class="cls-21" d="M436.94,373.8a1.09,1.09,0,0,0-.54.07,1.17,1.17,0,0,0-.43.48,7.09,7.09,0,0,1-3,3.11,9.47,9.47,0,0,1-2.6.47,22.83,22.83,0,0,0-3.27.57,1.38,1.38,0,0,0-.78.41,1.32,1.32,0,0,0-.18.62c-.1.7-.19,1.41-.28,2.11a16.76,16.76,0,0,0,2.45.21c4.47.15,9,.3,13.29-1.08a.73.73,0,0,0,.62-.8c.12-1.35.6-4.36-.21-5.55S438.12,373.84,436.94,373.8Z"/><path class="cls-21" d="M480.94,374.14a.65.65,0,0,0-.56.78l-.06,2.31a1.48,1.48,0,0,1-.15.78,1.59,1.59,0,0,1-.62.49,20,20,0,0,1-3.62,1.48,4.75,4.75,0,0,0-1.6.68,1.4,1.4,0,0,0-.56,1.53c.26.66,1.11.85,1.82.87a19.87,19.87,0,0,0,7.58-1.71c1.58-.59,3.15-1.22,4.7-1.87a1.24,1.24,0,0,0,.71-.55,1.21,1.21,0,0,0-.07-.77c-.35-1.09-.7-2.18-1-3.27-.22-.67-.4-2.08-1.13-2.42s-1.79.51-2.45.75A11.08,11.08,0,0,1,480.94,374.14Z"/><g class="cls-22"><g class="cls-23"><g class="cls-24"><rect class="cls-25" x="622.24" y="449.57" width="2.76" height="12.79"/><rect class="cls-25" x="625" y="449.57" width="81.59" height="12.79"/><rect class="cls-25" x="706.59" y="449.57" width="0.1" height="12.79"/></g></g></g><path class="cls-26" d="M641.51,451.24l3.59-.67a.91.91,0,0,0,.56-.25.85.85,0,0,0,.1-.59c-.07-1.28-.15-2.57-.23-3.85,0,.17-4.11.23-4.52.72C640.23,447.52,641.29,450.21,641.51,451.24Z"/><path class="cls-26" d="M664.53,449.2c1.12.28,2.24.55,3.37.79a1.49,1.49,0,0,0,1.08,0,1.5,1.5,0,0,0,.52-1c.23-1,.47-2,.7-3a.53.53,0,0,0,0-.33.58.58,0,0,0-.38-.28c-.88-.3-3.49-1.23-4.27-.55C665.24,445.08,664.69,449.24,664.53,449.2Z"/><path class="cls-27" d="M668.06,274c3.71-4.55,7.14.47,8.47,4.85,5.37,17.69,7.07,36.68,8.73,55.45.27,3,.53,6,.8,9q1.43,16.23,2.87,32.48c.05.64-10.68,3.37-11.6,3.64-5.61,1.67-11.44,1.78-17.16,1.39-7.16-.49-14.28-1.75-21.45-1.66-3.06,0-6.18.32-9.14-.55,1.23-6.31,1.36-12.81,1.64-19.25.66-15.55,2.17-31,3.67-46.52.85-8.68,1.35-17.56,2.42-26.17.59-4.7,2.5-13,6.59-15,4.34-2.21,6.41,3.57,9.91,5.06,4,1.7,8.92,2,12.61-1A11.24,11.24,0,0,0,668.06,274Z"/><path class="cls-28" d="M633.71,225.54a8.21,8.21,0,0,0,.24-2.61c-.06-.86-.42-1.87-1.28-2s-1.53.63-1.95,1.36c-1.92,3.39-2.42,7.36-2.87,11.22a13.28,13.28,0,0,0,4.1.62,10,10,0,0,1,1.16-4.66c.81-1.51,2.07-3,1.95-4.69l-.69-.06Z"/><path class="cls-27" d="M660.5,282.32c-1.54-5.33-13.43-7.54-17.9-9.68A39.4,39.4,0,0,1,629.88,263a9.81,9.81,0,0,1-2-3c-1.11-3,4.8-26.32,4.29-26.47l-5.1-1.52c-2.43,6.82-4.9,13.61-7.27,20.45-1.83,5.27-5,10.77-4,16.53.65,3.65,4.6,6.1,7.2,8.75,2.89,2.95,9.61,9.66,13.28,13.4l11,11.08c2.44,5.46,8.08-9.09,9.55-11C658.57,289,661.37,285.34,660.5,282.32Z"/><path class="cls-29" d="M664,447.41a30.81,30.81,0,0,1,7.19,2,27.49,27.49,0,0,0,5.22,4.77,4.87,4.87,0,0,1,1.5,1.39,1.48,1.48,0,0,1-.21,1.87,2.13,2.13,0,0,1-1.74.12,72.59,72.59,0,0,1-13.08-4.23,1.38,1.38,0,0,1-.66-.47,1.29,1.29,0,0,1-.15-.64A6.5,6.5,0,0,1,664,447.41Z"/><path class="cls-29" d="M646.91,448.66a30.63,30.63,0,0,0-7.14,2.15,27.84,27.84,0,0,1-5.11,4.89,4.86,4.86,0,0,0-1.47,1.42,1.47,1.47,0,0,0,.25,1.86,2.14,2.14,0,0,0,1.74.09,71.82,71.82,0,0,0,13-4.53,1.47,1.47,0,0,0,.66-.48,1.27,1.27,0,0,0,.13-.64A6.49,6.49,0,0,0,646.91,448.66Z"/><path class="cls-26" d="M658.29,272.71a7.9,7.9,0,0,0,5.6-2.27c5.77-5.1,6.29-13.77,6.37-21.48a4.72,4.72,0,0,0-.41-2.39c-.63-1.09-2-1.47-3.23-1.71-5.32-.42-10.6-.59-16-.75a2.25,2.25,0,0,0-1.31.23,2,2,0,0,0-.7,1.23c-.55,2.17,0,4.54-.23,6.79a37.52,37.52,0,0,0-.08,6.95c.44,4.49,2.15,8.78,5.8,11.6A7.86,7.86,0,0,0,658.29,272.71Z"/><path class="cls-30" d="M653.55,220.74a36,36,0,0,1-4.4-.17c-.6-.08-.67.79-.1.92,1.43.32,2.86.67,4.31.88C654.43,222.52,654.58,220.74,653.55,220.74Z"/><path class="cls-30" d="M644.69,210.08a7.5,7.5,0,0,0-.2,1.89,6.65,6.65,0,0,0,0,2.09c.09.33.57.58.8.2a6.41,6.41,0,0,0,.52-1.88,8.2,8.2,0,0,0,.31-2.14A.76.76,0,0,0,644.69,210.08Z"/><path class="cls-30" d="M651.28,213.09a11.64,11.64,0,0,0-1.9,1.45,5.59,5.59,0,0,0-1.45,1.54.45.45,0,0,0,.48.6,4.77,4.77,0,0,0,1.64-.82,12.25,12.25,0,0,0,2-1.45C652.65,213.83,652.11,212.64,651.28,213.09Z"/><path class="cls-27" d="M679.86,292c-1.72,2-4.87-.71-9.6-8.67-2.19-3.7,2.5-6.78,4.91-9.19l11.16-11.19c3.85-3.87,7.72-7.75,10.58-12a33.69,33.69,0,0,0,5.75-17.17,3.59,3.59,0,0,1,.62-2.34,3.44,3.44,0,0,1,3.22-.81,4,4,0,0,1,3.18,3.66C711.24,249.32,690.14,280,679.86,292Z"/><path class="cls-26" d="M703.7,230.4c-.19-1-.89-2.08-.52-3.07.21-.58.77-1,.85-1.63.05-.4-.12-.8-.08-1.21a1.53,1.53,0,0,1,.88-1.18,3.49,3.49,0,0,1,1.5-.32,2.73,2.73,0,0,1,1.52.31,2.41,2.41,0,0,1,.84,1.14,6.05,6.05,0,0,1,.24,3.13,18,18,0,0,1-.85,3.06,1.52,1.52,0,0,1-.44.73,1.27,1.27,0,0,1-.67.22,8.07,8.07,0,0,1-2.25,0C703.77,231.42,703.85,231.26,703.7,230.4Z"/><path class="cls-31" d="M636.78,217.57a5.77,5.77,0,0,1,1.71-2.52,2.93,2.93,0,0,1,2.87,0,16.2,16.2,0,0,1,2.87,1.55c.39.27,1.31.86,1.45,1.36.22.71-.31,1.48-.72,2.23-2.42,4.5-4.25,8.32-6.68,12.31a2.76,2.76,0,0,1-1.28,1.33,1.52,1.52,0,0,1-1-.11c-1.66-.62-6.67-2.36-5.12-5.33C632.82,224.74,635.06,221.36,636.78,217.57Z"/><path class="cls-32" d="M637.71,217a2.21,2.21,0,0,1,.77-.83,1.31,1.31,0,0,1,1.08,0,35.81,35.81,0,0,1,4,2c.21.11.73.39.84.62a1.77,1.77,0,0,1,.23.59c0,.65-.51,1.17-.76,1.81s-.63,1-.9,1.6-.63,1.18-1,1.76c-.48.87-.93,1.75-1.36,2.64-.31.64-.65,1.27-.93,1.92a2.14,2.14,0,0,1-.56.81,1,1,0,0,1-1.05.15,11.53,11.53,0,0,1-1.94-.93l-2.78-1.54c-.33-.19-1.07-.46-.94-1.05a4.27,4.27,0,0,1,.55-1c.22-.4.44-.8.65-1.2.85-1.58,1.65-3.2,2.51-4.78C636.68,218.65,637.17,217.79,637.71,217Z"/><path class="cls-33" d="M643.11,216.94a1.65,1.65,0,0,0-.31-.2l-.76-.4c-.15-.08-.34-.16-.41-.09s0,.1,0,.15c.14.24,1.36,1,1.55.78S643.2,217,643.11,216.94Z"/><path class="cls-33" d="M641.53,216.11a.13.13,0,0,0-.13-.12.22.22,0,0,0-.18.1.25.25,0,0,0-.06.14.16.16,0,0,0,.19.14.25.25,0,0,0,.17-.22Z"/><path class="cls-34" d="M634.49,229.81a1,1,0,0,0-.47.33.75.75,0,0,0-.11.91.92.92,0,0,0,.5.39.32.32,0,0,0,.17,0,.37.37,0,0,0,.19-.07,1.06,1.06,0,0,0,.47-.66C635.35,230.25,635,229.69,634.49,229.81Z"/><path class="cls-35" d="M676.44,242.77c-.7-2.8-3.52-4.67-6.38-5.08a10.69,10.69,0,0,0-7.27,1.58,4.52,4.52,0,0,1-2.25,1,3.84,3.84,0,0,1-1.68-.55l-3.9-2a18.08,18.08,0,0,0-6.56-2.38c-2.33-.2-4.92.71-6,2.78a5.92,5.92,0,0,0-.4,4,14.55,14.55,0,0,0,1.57,3.76,8.66,8.66,0,0,0,2.09,2.77,7.46,7.46,0,0,0,4.27,1.34,27.33,27.33,0,0,0,9.86-1.66,28.62,28.62,0,0,0,5.37-2.21l-.4.29,1.47,3a16.32,16.32,0,0,1,1.17,2.84c.72,2.73,0,5.6,0,8.43,0,.78.23,1.77,1,1.91s1.24-.52,1.61-1.11a59.92,59.92,0,0,0,3.93-7.85,29.88,29.88,0,0,0,2.61-7.73A8.18,8.18,0,0,0,676.44,242.77Z"/><path class="cls-36" d="M626.57,403.23a35.9,35.9,0,0,1-1.56-8.7,32.73,32.73,0,0,1,.76-6.68A180.15,180.15,0,0,1,639.23,346c.83-1.8,1.86-3.74,3.72-4.4a7.63,7.63,0,0,1,4.23.12l11.9,2.62a5.72,5.72,0,0,1,2.7,1.1,5.28,5.28,0,0,1,1.33,3.65c.6,8.43-2.51,16.77-7,23.93s-8.85,14.59-14.36,21a8.87,8.87,0,0,0-2,3.2,8.61,8.61,0,0,0-.08,3.28c1.66,15,6.57,28,7.71,43a3.25,3.25,0,0,1-3.28,3.51c-1.85,0-5,0-5.92-.75a1.34,1.34,0,0,1-.37-.69l-2.52-9.48-5.64-21.29Q628.1,409,626.57,403.23Z"/><path class="cls-36" d="M664.51,445.45a1.24,1.24,0,0,1-1.16-1.54c.29-12,6.18-23,10-34.28a21.4,21.4,0,0,0,1.1-4.23,19.86,19.86,0,0,0-.21-5.33c-2.46-16.5-12.34-30.85-18-46.54a5.32,5.32,0,0,1-.45-2.62c.23-1.36,1.41-2.32,2.54-3.1a57,57,0,0,1,9.43-5.29c3.15-1.4,7-2.45,9.86-.47,2.24,1.56,3,4.48,3.58,7.14,3,13.79,6.1,27.59,8.21,41.55a16.6,16.6,0,0,1,.2,5.44c-.31,1.65-1.61,9.92-2.33,11.44-6.51,13.64-7.93,22.14-13.78,36-.57,1.35-1,3.19-2.58,3.45S666.23,445.92,664.51,445.45Z"/><path class="cls-34" d="M680.72,340.54c.15,0,.2-.09.12-.22a38.61,38.61,0,0,1-2.33-4.15,205.28,205.28,0,0,0-3.57-26.57c-2.27-10.81-7.16-20.83-10.07-31.46-.86-3.13-2.29-3.14-6.29-3a8.38,8.38,0,0,0-2.41.14c-2.58-.15-1.71.31-3.81-.33-2.34-.71-4.77,1.14-4.77,3.08s0,4.15-.1,6.23a270.2,270.2,0,0,0-7.3,51.35v.06l-.69,2.66a15,15,0,0,0-1.13,4l-.09.34c-.44,1.52.57,2.83,2.24,3.34a57.75,57.75,0,0,0,38.67-1.63,3.38,3.38,0,0,0,.47-.22l.32-.12.57-.37a2.2,2.2,0,0,0,.77-1.36A2.26,2.26,0,0,0,680.72,340.54Z"/><path class="cls-31" d="M668,247.81a4.89,4.89,0,0,0-1.86,3.88,11.5,11.5,0,0,0,.9,4.49,4.22,4.22,0,0,0,1.1,1.83,3.24,3.24,0,0,0,2,.54,4.21,4.21,0,0,0,2.69-.56c1-.74,1.47-2.19,1.82-3.55a7,7,0,0,0,.28-3.43c-.28-1.15-1.17-2.87-2.15-3.35A5.4,5.4,0,0,0,668,247.81Z"/><path class="cls-37" d="M668.83,248a4.67,4.67,0,0,0-1.06,2.55,15.29,15.29,0,0,0-.37,3.29,11.16,11.16,0,0,0,.56,2.85,4.43,4.43,0,0,0,.68,1.48,3.22,3.22,0,0,0,1,.78,3.71,3.71,0,0,0,3.09.35c1.5-.59,2.2-2.29,2.59-3.85a9.62,9.62,0,0,0-.07-6.25,3,3,0,0,0-2.6-1.91C671.34,247.14,669.85,247,668.83,248Z"/><path class="cls-31" d="M670.79,249.51a5.44,5.44,0,0,0-1.34-4,13,13,0,0,0-2.3-2.61c-2.91-2.31-7.36-1.89-10.15-4.34a6.3,6.3,0,0,1,3.76.15l2.61.64a26.56,26.56,0,0,1,3.3,1,27.14,27.14,0,0,1,3.06,1.51,6.15,6.15,0,0,1,2,1.44,5.32,5.32,0,0,1,1,2.28,36.43,36.43,0,0,1,.4,9.9c0,.32-1.47.15-1.65.05-.57-.32-.39-1-.42-1.61C670.92,252.45,670.86,251,670.79,249.51Z"/><path class="cls-12" d="M641.44,223.68l-.05-2.56a.44.44,0,0,0-.22-.36l-2.25-1.24a.45.45,0,0,0-.42,0l-2.19,1.33a.43.43,0,0,0-.2.37l.06,2.56a.4.4,0,0,0,.22.36l2.24,1.23a.4.4,0,0,0,.42,0l2.19-1.32A.41.41,0,0,0,641.44,223.68Z"/><path class="cls-9" d="M639,223.59a.1.1,0,0,0-.12,0,1.25,1.25,0,0,0-.37-.31,1.11,1.11,0,0,0-.58-.14.09.09,0,0,0-.09.09.12.12,0,0,0,0,.08H638a1,1,0,0,1,.5.12,1.1,1.1,0,0,1,.34.3.64.64,0,0,1-.75.11.63.63,0,0,1-.25-.86.53.53,0,0,1,.4-.16,1.26,1.26,0,0,1,1.07.38,1,1,0,0,0,.85.38.8.8,0,0,0,.64-.41.72.72,0,0,0,0-.67.67.67,0,0,0-.56-.35H640c-.17,0-.17,0-.18,0a1.09,1.09,0,0,1-.05-.17c0-.11,0-.18-.1-.21a.12.12,0,0,0-.1,0c-.07,0-.12.11-.25.3l-.08.12v0c0-.15-.06-.23-.12-.26a.14.14,0,0,0-.09,0,.81.81,0,0,0-.21.26l0,.1,0-.08c0-.19,0-.27-.12-.31a.14.14,0,0,0-.09,0c-.06,0-.09.11-.14.27a1.15,1.15,0,0,1-.13.31c-.06,0-.21.05-.59-.17a1,1,0,0,1-.43-.4.54.54,0,0,1,0-.55.48.48,0,0,1,.34-.25.79.79,0,0,1,.62.19,4.57,4.57,0,0,1,.44.45.07.07,0,0,0,.07,0,.09.09,0,0,0,.08-.05l.16-.29a.35.35,0,0,1,.49-.14.36.36,0,0,1,.19.36.09.09,0,0,0,.08.09.08.08,0,0,0,.1-.08.54.54,0,0,0,0-.25l.21-.12a.1.1,0,0,0,0-.12.1.1,0,0,0-.13,0l-.2.13a.48.48,0,0,0-.16-.13.49.49,0,0,0-.19-.07v-.23a.09.09,0,0,0-.18,0V221a.56.56,0,0,0-.37.27l-.1.18a2.25,2.25,0,0,0-.38-.38.94.94,0,0,0-.77-.23.67.67,0,0,0-.46.34c-.27.49.06,1,.5,1.2.29.16.6.3.79.15a.85.85,0,0,0,.19-.38h0c0,.2.06.28.12.31a.14.14,0,0,0,.09,0,.71.71,0,0,0,.2-.26l.07-.11v0c0,.15.05.22.11.26a.14.14,0,0,0,.09,0c.06,0,.1-.09.22-.27l.12-.17v0a1.52,1.52,0,0,0,.06.2c.06.13.16.14.34.15h.19a.51.51,0,0,1,.42.25.55.55,0,0,1,0,.5.64.64,0,0,1-.5.32.81.81,0,0,1-.69-.32,1.45,1.45,0,0,0-1.22-.44.7.7,0,0,0-.55.25.81.81,0,0,0,.21,1l-.07.14a.08.08,0,0,0,0,.12.1.1,0,0,0,.13,0l.07-.13a.83.83,0,0,0,1.06-.34A.11.11,0,0,0,639,223.59Z"/><path class="cls-12" d="M636.08,224.76H636a.06.06,0,0,0,0,0l-.24.21,0-.32h0v0h-.11l-.23.21,0-.31a.13.13,0,0,0,0-.06l-.05,0s0,0,0,0,0,0,0,0l-.09.52h.12l.24-.22,0,.32h.12l.39-.35a.08.08,0,0,0,0-.05A.06.06,0,0,0,636.08,224.76Z"/><path class="cls-12" d="M636.44,225.43h0l0-.4h0s0,0,0,0h-.11l-.31.25h0l-.11.08a.08.08,0,0,0,0,0,0,0,0,0,0,0,.05h0a.06.06,0,0,0,.08,0l.07,0,.18.1v.09a.08.08,0,0,0,0,.07h0l0,0a.05.05,0,0,0,0-.05Zm-.13-.13-.08,0,.09-.07Z"/><path class="cls-12" d="M637.11,225.58l-.19-.1h0a.05.05,0,0,0,0,0,.06.06,0,0,0,0,.06.05.05,0,0,0,0,0l.12.07,0,.06a.16.16,0,0,1-.12,0,.15.15,0,0,1-.09-.1.18.18,0,0,1,0-.14.16.16,0,0,1,.1-.08.18.18,0,0,1,.14,0,.11.11,0,0,1,.07.08l0,0h.06l0,0a.13.13,0,0,0,0-.06.24.24,0,0,0-.13-.15.36.36,0,0,0-.25,0,.33.33,0,0,0-.19.16.33.33,0,0,0,.13.43l.12,0v0l0,0H637a.1.1,0,0,0,0,0l.12-.23s0,0,0-.05A.09.09,0,0,0,637.11,225.58Z"/><path class="cls-12" d="M637.73,225.93l-.19-.11h0s0,0,0,0a.13.13,0,0,0,0,.06.08.08,0,0,0,0,0l.12.07,0,.06a.17.17,0,0,1-.12,0,.18.18,0,0,1-.08-.11.15.15,0,0,1,0-.13.17.17,0,0,1,.11-.09.15.15,0,0,1,.13,0,.2.2,0,0,1,.08.08s0,0,0,0h0l0,0a.06.06,0,0,0,0-.06.4.4,0,0,0-.14-.15.34.34,0,0,0-.24,0,.31.31,0,0,0-.19.16.26.26,0,0,0,0,.24.26.26,0,0,0,.15.19.28.28,0,0,0,.13,0v0l0,0h.06a.08.08,0,0,0,0,0l.13-.23a0,0,0,0,0,0-.05S637.75,225.94,637.73,225.93Z"/><path class="cls-12" d="M638.11,226.44l-.17-.1.21-.37a0,0,0,0,0,0-.05.07.07,0,0,0-.09,0s0,0,0,0l-.24.44a0,0,0,0,0,0,0s0,0,0,0l.24.13h.05a.08.08,0,0,0,0,0,.07.07,0,0,0,0-.05Z"/><path class="cls-12" d="M638.61,226.71l-.2-.11.05-.09.14.07h0a.1.1,0,0,0,.05,0,0,0,0,0,0,0-.05s0,0,0,0l-.14-.08.05-.09.2.11h.05a.05.05,0,0,0,0,0,0,0,0,0,0,0-.05.05.05,0,0,0,0,0l-.26-.14h-.06a.08.08,0,0,0,0,0l-.24.43a.13.13,0,0,0,0,.06l0,0,.26.14a.07.07,0,0,0,.06,0l0,0a.06.06,0,0,0,0-.06S638.63,226.72,638.61,226.71Z"/><path class="cls-38" d="M244.61,303.55a11.17,11.17,0,0,1-.67-2.53c-1.59-9.28-1.54-18,.15-25.4.66-2.88,2-5.8,4.94-4.79a4.16,4.16,0,0,1,1.5.93c1.93,1.81,2.22,4.89,2.15,7.16a213.45,213.45,0,0,1-1.42,22.46,10.83,10.83,0,0,1,1.83,1.72c6.67,7.28,13.87,13.62,20.13,21.54a15.67,15.67,0,0,1,2.64,4.29c.55,1.54.4,3.19-.63,3.33-.84.12-1.92-.74-2.88-1.55l-13-11c-4.05-3.42-8.28-7.09-11.45-11.93A15.44,15.44,0,0,1,244.61,303.55Z"/><path class="cls-39" d="M271.36,313.93a3.38,3.38,0,0,1,4.75.7,28,28,0,0,1,3.64,3.74,27,27,0,0,1,3.26,6.34c.82,2.06,1.63,4.12,2.41,6.19.54,1.43,1.06,3.09.28,4.41a4.8,4.8,0,0,1-1.78,1.56,64.12,64.12,0,0,1-7.65,3.69l-15.15,6.5a13.37,13.37,0,0,1-3.05,1,6.7,6.7,0,0,1-3.49-.37,2.42,2.42,0,0,1-.86-.51,3,3,0,0,1-.48-.81,127.8,127.8,0,0,1-6.32-17.3,3.14,3.14,0,0,1,.07-2.67,3.06,3.06,0,0,1,1.11-.83C255.74,321.51,263.55,317.68,271.36,313.93Z"/><path class="cls-38" d="M249.58,317.89a23.28,23.28,0,0,0-.21,14,3.41,3.41,0,0,1,.22,1.33,2.72,2.72,0,0,1-1.63,1.87c-3.74,2-8.1,2.22-12.3,2.23a166.73,166.73,0,0,1-20.22-1.18c-.77-.94-.25-2.37.1-3.56,1.08-3.58.27-7.44-.11-11.18a2.33,2.33,0,0,1,.12-1.26,2,2,0,0,1,.82-.77,29.79,29.79,0,0,1,15.77-4.6,43.14,43.14,0,0,1,6.71.61A79.38,79.38,0,0,1,249.58,317.89Z"/><path class="cls-38" d="M233.23,260.92a8.49,8.49,0,0,1-3.41.12c-6.39-1.1-8.51-9-8.73-13.8s0-9.69,2.15-14a9.73,9.73,0,0,1,8.85-5.52,10.51,10.51,0,0,1,2.5.25c9.83,2,9.68,15.18,8.44,22.29C242.31,254.38,238.23,259.73,233.23,260.92Z"/><path class="cls-40" d="M236.41,449.72a37.07,37.07,0,0,1,9.05.38,33.87,33.87,0,0,0,7.49,4.21,5.83,5.83,0,0,1,2.16,1.22,1.81,1.81,0,0,1,.27,2.28,2.55,2.55,0,0,1-2,.62A87.79,87.79,0,0,1,236.7,457a1.61,1.61,0,0,1-.91-.37,1.53,1.53,0,0,1-.35-.71A7.87,7.87,0,0,1,236.41,449.72Z"/><path class="cls-40" d="M210.62,447.82a33.28,33.28,0,0,1,7.93,1.92,30.63,30.63,0,0,0,5.87,5,5.19,5.19,0,0,1,1.69,1.46,1.6,1.6,0,0,1-.16,2,2.32,2.32,0,0,1-1.89.2,79,79,0,0,1-14.45-4.16,1.52,1.52,0,0,1-.75-.48,1.48,1.48,0,0,1-.18-.69A7.08,7.08,0,0,1,210.62,447.82Z"/><path class="cls-40" d="M213.06,395.49c.74-16.48-.82-33.29-.68-49.88a39.09,39.09,0,0,1,2.32-17,2.68,2.68,0,0,1,.51-.94c.78-.8,2.1-.37,3.13,0a33.6,33.6,0,0,0,30.5-2.63c1.77,2.7,2.28,6,2.72,9.23.71,5.18,1.48,10.35,1.67,15.56v0h0c0,1.11.07,2.23.05,3.36-.13,6.48-1.38,12.88-2.36,19.27a90.22,90.22,0,0,0-1.25,12.6c0,3.46.44,6.62-.33,10-1.91,8.34-1.92,17.43-2.72,25.95-.86,9.12-1.72,18.25-2.42,27.39l-.09,1.09c-.46.12-7.49,1.74-7.49-.08q-.84-26.61-1.69-53.22c-.29-9.07-.6-18.31-3.85-26.68q-6.87,37.61-13.73,75.19c-.38,2.07-.83,4.3-2.2,5.63a2.53,2.53,0,0,1-4.31-1.1C212.1,431.37,212.25,413.44,213.06,395.49Z"/><path class="cls-41" d="M252.5,299.33c-.81-4.35-1.69-8.69-2.8-13-.89-3.42-1.89-6.81-2.92-10.19-.51-1.63-1.05-3.24-1.59-4.86-.06-.2-.12-.37-.17-.53-1.35-3.14-2.62-6.16-3.73-9.18-.65.28-1.32.54-2,.76a20.17,20.17,0,0,1-16.27-2,11.51,11.51,0,0,0-7.44,6.14c-1.31,2.73-1.55,5.69-1.77,8.61-1.11,14.53-2.1,29-2.34,43.48-.27,16.49-6.22,31-10.9,44.45a3.87,3.87,0,0,0-.33,1.88c.28,1.73,2.49,2.24,4.24,2.34a503.67,503.67,0,0,0,54.4.21c-.92-15.77-3.16-37.07-5.6-52.69A83.79,83.79,0,0,1,252.5,299.33Z"/><path class="cls-40" d="M270.48,326.62c.13.12-.05.34-.19.24l-.18-.14a.17.17,0,0,1-.06-.22,2.39,2.39,0,0,0,.43-.67c.07-.36-.09-.31-.3-.37s-.52.1-.72,0-.11-.16-.17-.24-.35-.46-.59-.5-.37,0-.55,0a.14.14,0,0,1-.1-.23,13.24,13.24,0,0,0,.89-1.23c-.57-.05-1.1.36-1.7.22a.13.13,0,0,1-.08-.19,5.75,5.75,0,0,1,.42-.69c-.47.19-.85.18-.86-.33a1.75,1.75,0,0,1,.48-.93.06.06,0,0,1,.05-.06c.57-.69,1.45-1.34,1.86-.87a.09.09,0,0,1,0,.15,6.09,6.09,0,0,1-1.6.83,2.26,2.26,0,0,0-.46.66c0,.62.61.31.84.19a4.53,4.53,0,0,1,1.18-.94.13.13,0,0,1,.16.2,5.72,5.72,0,0,1-1,.78,4.33,4.33,0,0,0-.71,1c.59,0,1.11-.39,1.72-.22a.13.13,0,0,1,.08.2,14.59,14.59,0,0,1-.85,1.21c.33,0,.71-.1.95.14s.07.25.16.37c.2.31.56.21.88.22s.42,0,.5.25S270.28,326.46,270.48,326.62ZM267.85,321c.44-.17,1-.41.94-.51S268.21,320.73,267.85,321Z"/><path class="cls-40" d="M276.08,336.56a5.64,5.64,0,0,0-2-1.06.29.29,0,0,1,0-.09.61.61,0,0,0-.35-.66c.34-.41.87-1,.73-1.47s-.87-.4-1.3-.36c.17-.62.77-1.43.19-2s-1.46-.09-2.1.15a6.51,6.51,0,0,1,.81-1.6.14.14,0,0,0-.12-.2c-.31,0-.64.31-.92.26s-.29,0-.14-.26.07-.27.11-.4l.27-.9a.06.06,0,0,0,0-.07.83.83,0,0,0-.49-.06,0,0,0,1,0,0,.06c.64,0-.11,1.56-.19,1.83a.12.12,0,0,0,.08.14c.4.11.68-.13,1-.26a7.4,7.4,0,0,0-.8,1.68.16.16,0,0,0,.19.19l.74-.24.51-.14c.36-.2.6-.09.71.31.34.5.18.56,0,1.05a2.26,2.26,0,0,0-.16.58c0,.1,0,.22.15.21.35,0,1.18-.12,1.06.44a3.46,3.46,0,0,1-.71,1,.17.17,0,0,0,.12.29,1.34,1.34,0,0,1,.08.45.73.73,0,0,0-.66.72.17.17,0,0,0,.22.17,2.16,2.16,0,0,0,.79-.48l.05,0,.24.07a2.41,2.41,0,0,1,.6.23,3.82,3.82,0,0,1,1.05.69C276,337,276.26,336.72,276.08,336.56Z"/><path class="cls-40" d="M268.79,332.19a2.19,2.19,0,0,1-.23-.49.61.61,0,0,0,.05-.18c-.06-.33,0-.19-.1-.52a12.11,12.11,0,0,0-.78-1.67c-.14-.22-.32-.39-.46-.59a.94.94,0,0,1-.17-1c0-.14-.19-.2-.23-.06s-.24.53-.13.79.61.67.83,1.05a6.9,6.9,0,0,1,.71,2.06,4.62,4.62,0,0,1,.16,1.41c-.07.15.14.29.23.13A1,1,0,0,0,268.79,332.19Z"/><path class="cls-40" d="M269.16,334a.09.09,0,0,0-.12,0,.1.1,0,0,0,0-.09l-.06-.09c-.07-.1-.22,0-.16.09l.06.09a.11.11,0,0,0,.12,0,.06.06,0,0,0,0,.08l.09.12c.07.1.23,0,.16-.09Z"/><path class="cls-42" d="M208.6,288.29a27.4,27.4,0,0,1,18.63-14.19c-.65-4.73-1.64-9.29-2.67-13.89l-.12-.54c-1.11-4.94-.22-10.19-1.71-15-.56-1.8-1.46-3.77-.65-5.47a4.09,4.09,0,0,1,3.86,2.28c.17-2.65.33-5.29.5-7.93,1.34-.17,2.49.85,3.73,1.34a5.74,5.74,0,0,0,2.8.34,13,13,0,0,0,2.5.79,26.66,26.66,0,0,0,4.55.34l8.43.14c2.41-9.31-11-12.34-17.69-13-3.93-.4-8.13.37-11.14,2.91-2.48,2.11-3.91,5.18-5.11,8.2-2.75,6.95-1.38,15.73-3,23.19-1.77,8.31-4.22,16.74-3,25.32A29,29,0,0,1,208.6,288.29Z"/><path class="cls-38" d="M212.56,272.65c-4.53,2.44-4.76,6.13-5,9.66-.22,2.8-4.12,12.86-5.71,16.88a.79.79,0,0,1-1.45.05c-2.66-5.48-11.38-23.1-14.25-24.1-3.41-1.17-2.64-5.63-4.82-5.4s-.47,2.88-2.29,3.17-8.39-3.34-8.74-.76.41,2.29.41,3.58.11,1.53,1.23,2.29,3.93,1.47,6.93,1.94,5.11-.12,6.22,1.76,3.07,26.39,16.82,27.72c3,.29,7.26-1.06,11-11.3S221,282.72,221,282.72,222.1,267.52,212.56,272.65Z"/><path class="cls-41" d="M221.05,264.15a14.41,14.41,0,0,1,6.28,13.27,35,35,0,0,1-5.49,15.49s-18.93-1.81-16.83-9.63S209.19,262.05,221.05,264.15Z"/><path class="cls-41" d="M241,264.15a14.41,14.41,0,0,0-6.28,13.27,35.11,35.11,0,0,0,5.5,15.49s18.92-1.81,16.83-9.63S252.82,262.05,241,264.15Z"/><path class="cls-41" d="M226.09,261.93,223,260.39s-8.91,12.87-9.52,18.82,15,3,15,3L232,271.67Z"/><path class="cls-12" d="M415.36,181.35l-3.74-4.56a1,1,0,0,0-.91-.34l-5.83,1a1,1,0,0,0-.75.62l-2.07,5.53a1,1,0,0,0,.15,1l3.75,4.56a1,1,0,0,0,.91.34l5.83-1a1,1,0,0,0,.75-.62l2.07-5.53A1,1,0,0,0,415.36,181.35Z"/><path class="cls-9" d="M410.85,184.65a.21.21,0,0,0-.17.23,2.75,2.75,0,0,0-1.11,0,2.68,2.68,0,0,0-1.27.57.21.21,0,0,0,.17.37.24.24,0,0,0,.1-.05,2.28,2.28,0,0,1,1.07-.48,2.31,2.31,0,0,1,1.05.07,1.46,1.46,0,0,1-2.89.05c0-.16.12-.49.51-.86a3,3,0,0,1,2.47-.85,2.27,2.27,0,0,0,2.09-.51,1.8,1.8,0,0,0,.56-1.65,1.61,1.61,0,0,0-.93-1.24,1.54,1.54,0,0,0-1.5.17l-.38.26c-.32.23-.33.22-.39.19a3.53,3.53,0,0,1-.34-.24c-.18-.16-.32-.27-.48-.24a.31.31,0,0,0-.19.13,2.1,2.1,0,0,0,0,.91l0,.33-.1-.08c-.28-.23-.42-.34-.58-.3a.24.24,0,0,0-.17.13c-.06.12,0,.3,0,.76l0,.26-.14-.12c-.35-.3-.49-.42-.65-.39a.23.23,0,0,0-.17.13c-.07.14,0,.31.12.68a2.15,2.15,0,0,1,.2.75c0,.16-.29.38-1.3.54a2.58,2.58,0,0,1-1.35-.13,1.24,1.24,0,0,1-.79-1,1.1,1.1,0,0,1,.26-.92,1.75,1.75,0,0,1,1.4-.53,6,6,0,0,1,1.43.19.24.24,0,0,0,.2-.05.23.23,0,0,0,.07-.19l-.13-.75a.85.85,0,0,1,.7-1,.83.83,0,0,1,.85.38.21.21,0,1,0,.35-.23,1.15,1.15,0,0,0-.42-.4l.2-.52a.2.2,0,0,0-.11-.27.22.22,0,0,0-.28.12l-.2.52a1.41,1.41,0,0,0-.46,0,1.54,1.54,0,0,0-.44.16l-.35-.42a.21.21,0,0,0-.3,0,.21.21,0,0,0,0,.29l.36.43a1.27,1.27,0,0,0-.28,1l.07.44a6,6,0,0,0-1.22-.13,2.15,2.15,0,0,0-1.73.68,1.52,1.52,0,0,0-.35,1.26c.21,1.27,1.47,1.65,2.62,1.47.74-.12,1.51-.31,1.64-.86a2.07,2.07,0,0,0-.2-1h0c.34.3.49.42.65.39a.29.29,0,0,0,.17-.14,1.71,1.71,0,0,0,0-.74,2.77,2.77,0,0,1,0-.3l.08.07c.27.22.42.33.57.31a.27.27,0,0,0,.17-.12c.07-.12.06-.3,0-.8,0-.13,0-.32,0-.47l0,0a2.41,2.41,0,0,0,.4.29c.3.16.49,0,.83-.22l.37-.24a1.12,1.12,0,0,1,1.1-.15,1.22,1.22,0,0,1,.69.93,1.42,1.42,0,0,1-.44,1.28,1.86,1.86,0,0,1-1.71.4,3.34,3.34,0,0,0-2.85,1,1.54,1.54,0,0,0-.63,1.23,1.89,1.89,0,0,0,1.86,1.57l.06.36a.2.2,0,0,0,.24.17.21.21,0,0,0,.18-.24l-.06-.34a1.88,1.88,0,0,0,1.42-2.13A.21.21,0,0,0,410.85,184.65Z"/><path class="cls-12" d="M407.19,191h-.09l0,0a.24.24,0,0,0-.06.11l-.13.73-.36-.65h0s0,0,0,0l0,0h-.15l0,0s0,0,0,0v0h0l-.12.73-.36-.65a.2.2,0,0,0-.1-.08.15.15,0,0,0-.13,0,.16.16,0,0,0-.07.09.15.15,0,0,0,0,.13l.58,1.06h0v0h.29v0h0l.13-.73.35.65h0v0h0l0,0h.19l0,0h0l0,0h0v0h0v0h0l.21-1.19a.19.19,0,0,0,0-.13A.17.17,0,0,0,407.19,191Z"/><path class="cls-12" d="M408.79,191.65h0l-.49-.78h0l0,0H408v0l-.21.89h0l-.07.3a.19.19,0,0,0,0,.13.21.21,0,0,0,.11.07h.06a.14.14,0,0,0,.13-.12l0-.2.48-.08.1.17a.17.17,0,0,0,.17.08s0,0,.06,0a.14.14,0,0,0,.08-.1.17.17,0,0,0,0-.12Zm-.41,0-.21,0,.06-.27Z"/><path class="cls-12" d="M410.22,191l-.48.08a.14.14,0,0,0-.11.07.13.13,0,0,0,0,.12.19.19,0,0,0,.07.11.21.21,0,0,0,.12,0l.32-.06,0,.18a.41.41,0,0,1-.54.06.35.35,0,0,1-.16-.26.36.36,0,0,1,.07-.3.39.39,0,0,1,.26-.17.41.41,0,0,1,.26.05.17.17,0,0,0,.12,0,.16.16,0,0,0,.1-.08.15.15,0,0,0,0-.13.19.19,0,0,0-.08-.1.75.75,0,0,0-.47-.07.67.67,0,0,0-.47.3.65.65,0,0,0-.13.54.69.69,0,0,0,.3.48.72.72,0,0,0,.55.13.75.75,0,0,0,.28-.11l0,0a.14.14,0,0,0,.11,0,.13.13,0,0,0,.1-.06.14.14,0,0,0,0-.12l-.09-.6a.14.14,0,0,0-.07-.11A.14.14,0,0,0,410.22,191Z"/><path class="cls-12" d="M411.83,190.72l-.48.08a.14.14,0,0,0-.1.07.14.14,0,0,0,0,.12.16.16,0,0,0,.19.14l.31,0,0,.17a.42.42,0,0,1-.24.14.45.45,0,0,1-.3-.07.44.44,0,0,1-.17-.27.4.4,0,0,1,.07-.3.42.42,0,0,1,.27-.16.36.36,0,0,1,.25,0,.2.2,0,0,0,.13,0,.16.16,0,0,0,.1-.08.19.19,0,0,0,0-.13.14.14,0,0,0-.08-.09.73.73,0,0,0-1,.22.71.71,0,0,0-.12.55.67.67,0,0,0,.29.47.69.69,0,0,0,.55.13.57.57,0,0,0,.28-.11l0,0a.2.2,0,0,0,.11,0,.14.14,0,0,0,.1-.07.14.14,0,0,0,0-.12l-.09-.6a.16.16,0,0,0-.07-.11A.15.15,0,0,0,411.83,190.72Z"/><path class="cls-12" d="M413.26,191.1l-.45.08-.16-1a.16.16,0,0,0-.07-.11.16.16,0,0,0-.25.16l.18,1.13a.16.16,0,0,0,.07.11.14.14,0,0,0,.12,0l.61-.1a.16.16,0,0,0,.11-.07.14.14,0,0,0,0-.12.16.16,0,0,0-.07-.11A.13.13,0,0,0,413.26,191.1Z"/><path class="cls-12" d="M414.54,190.89,414,191l0-.24.36-.06a.13.13,0,0,0,.1-.06.15.15,0,0,0,0-.13.12.12,0,0,0-.07-.1.12.12,0,0,0-.12,0l-.36.06,0-.24.52-.08h0a.21.21,0,0,0,.11-.07.14.14,0,0,0,0-.12.14.14,0,0,0-.07-.11.14.14,0,0,0-.12,0l-.69.11a.14.14,0,0,0-.1.07.13.13,0,0,0,0,.12l.19,1.13a.15.15,0,0,0,.06.11.28.28,0,0,0,.13,0l.68-.12a.17.17,0,0,0,.11-.06.19.19,0,0,0,0-.13.13.13,0,0,0-.06-.1A.15.15,0,0,0,414.54,190.89Z"/></g></g></svg>